<mxfile host="app.diagrams.net" modified="2024-03-09T15:09:46.164Z" agent="Mozilla/5.0 (Windows NT 10.0; Win64; x64) AppleWebKit/537.36 (KHTML, like Gecko) Chrome/122.0.0.0 Safari/537.36 Edg/122.0.0.0" etag="2DGd1xFcdaYCd2WTM8DG" version="24.0.4" type="github">
  <diagram name="Page-1" id="8378b5f6-a2b2-b727-a746-972ab9d02e00">
    <mxGraphModel dx="1426" dy="785" grid="0" gridSize="10" guides="1" tooltips="1" connect="0" arrows="1" fold="1" page="1" pageScale="1.5" pageWidth="1169" pageHeight="827" background="none" math="0" shadow="0">
      <root>
        <mxCell id="0" />
        <mxCell id="1" parent="0" />
        <mxCell id="63" value="1" style="strokeColor=#DEEDFF;fillColor=#ADC3D9" parent="1" vertex="1">
          <mxGeometry x="86.5" y="380" width="40" height="20" as="geometry" />
        </mxCell>
        <mxCell id="64" value="Complete project execution" style="align=left;strokeColor=#DEEDFF;fillColor=#ADC3D9" parent="1" vertex="1">
          <mxGeometry x="126.5" y="380" width="320" height="20" as="geometry" />
        </mxCell>
        <mxCell id="65" value="35 days" style="strokeColor=#DEEDFF;fillColor=#ADC3D9" parent="1" vertex="1">
          <mxGeometry x="446.50000000000176" y="380" width="80.00000000000028" height="20" as="geometry" />
        </mxCell>
        <mxCell id="66" value="16.04.12" style="strokeColor=#DEEDFF;fillColor=#ADC3D9" parent="1" vertex="1">
          <mxGeometry x="526.500000000002" y="380" width="80.00000000000028" height="20" as="geometry" />
        </mxCell>
        <mxCell id="67" value="1.06.12" style="strokeColor=#DEEDFF;fillColor=#ADC3D9" parent="1" vertex="1">
          <mxGeometry x="606.5000000000016" y="380.0000000000002" width="80.00000000000028" height="20" as="geometry" />
        </mxCell>
        <mxCell id="68" value="" style="strokeColor=#DEEDFF" parent="1" vertex="1">
          <mxGeometry x="686.500000000002" y="380.0000000000002" width="20" height="520" as="geometry" />
        </mxCell>
        <mxCell id="69" value="2" style="strokeColor=#DEEDFF;fillColor=#CCE5FF" parent="1" vertex="1">
          <mxGeometry x="86.50000000000026" y="399.9999999999999" width="40" height="20" as="geometry" />
        </mxCell>
        <mxCell id="70" value="Engineering" style="align=left;strokeColor=#DEEDFF;fillColor=#CCE5FF" parent="1" vertex="1">
          <mxGeometry x="126.50000000000026" y="399.9999999999999" width="319.9999999999998" height="20" as="geometry" />
        </mxCell>
        <mxCell id="71" value="35 days" style="strokeColor=#DEEDFF;fillColor=#CCE5FF" parent="1" vertex="1">
          <mxGeometry x="446.500000000002" y="399.99999999999983" width="80.00000000000028" height="20" as="geometry" />
        </mxCell>
        <mxCell id="72" value="16.04.12" style="strokeColor=#DEEDFF;fillColor=#CCE5FF" parent="1" vertex="1">
          <mxGeometry x="526.5000000000023" y="399.99999999999983" width="80.00000000000028" height="20" as="geometry" />
        </mxCell>
        <mxCell id="73" value="1.06.12" style="strokeColor=#DEEDFF;fillColor=#CCE5FF" parent="1" vertex="1">
          <mxGeometry x="606.5000000000018" y="400.0000000000001" width="80.00000000000028" height="20" as="geometry" />
        </mxCell>
        <mxCell id="74" value="3" style="strokeColor=#DEEDFF" parent="1" vertex="1">
          <mxGeometry x="86.50000000000027" y="419.9999999999998" width="40" height="20" as="geometry" />
        </mxCell>
        <mxCell id="75" value="Project examination" style="align=left;strokeColor=#DEEDFF" parent="1" vertex="1">
          <mxGeometry x="126.50000000000027" y="419.9999999999998" width="319.9999999999997" height="20.000000000000014" as="geometry" />
        </mxCell>
        <mxCell id="76" value="1 day" style="strokeColor=#DEEDFF" parent="1" vertex="1">
          <mxGeometry x="446.500000000002" y="419.9999999999997" width="80.00000000000028" height="20" as="geometry" />
        </mxCell>
        <mxCell id="77" value="16.04.12" style="strokeColor=#DEEDFF" parent="1" vertex="1">
          <mxGeometry x="526.5000000000023" y="419.9999999999997" width="80.00000000000028" height="20" as="geometry" />
        </mxCell>
        <mxCell id="78" value="16.04.12" style="strokeColor=#DEEDFF" parent="1" vertex="1">
          <mxGeometry x="606.5000000000018" y="420" width="80.00000000000028" height="20" as="geometry" />
        </mxCell>
        <mxCell id="79" value="4" style="strokeColor=#DEEDFF" parent="1" vertex="1">
          <mxGeometry x="86.5" y="440.00000000000017" width="40" height="20" as="geometry" />
        </mxCell>
        <mxCell id="80" value="Material specification" style="align=left;strokeColor=#DEEDFF" parent="1" vertex="1">
          <mxGeometry x="126.5" y="440.00000000000017" width="320" height="20" as="geometry" />
        </mxCell>
        <mxCell id="81" value="2 days" style="strokeColor=#DEEDFF" parent="1" vertex="1">
          <mxGeometry x="446.5000000000017" y="440.0000000000001" width="80.00000000000028" height="20" as="geometry" />
        </mxCell>
        <mxCell id="82" value="17.04.12" style="strokeColor=#DEEDFF" parent="1" vertex="1">
          <mxGeometry x="526.500000000002" y="440.0000000000001" width="80.00000000000028" height="20" as="geometry" />
        </mxCell>
        <mxCell id="83" value="18.04.12" style="strokeColor=#DEEDFF" parent="1" vertex="1">
          <mxGeometry x="606.5000000000015" y="440.0000000000004" width="80.00000000000028" height="20" as="geometry" />
        </mxCell>
        <mxCell id="84" value="5" style="strokeColor=#DEEDFF" parent="1" vertex="1">
          <mxGeometry x="86.49999999999991" y="460.00000000000017" width="40" height="20" as="geometry" />
        </mxCell>
        <mxCell id="85" value="Material ordering" style="align=left;strokeColor=#DEEDFF" parent="1" vertex="1">
          <mxGeometry x="126.49999999999991" y="460.00000000000017" width="320.0000000000001" height="20" as="geometry" />
        </mxCell>
        <mxCell id="86" value="1 day" style="strokeColor=#DEEDFF" parent="1" vertex="1">
          <mxGeometry x="446.50000000000165" y="460.0000000000001" width="80.00000000000028" height="20" as="geometry" />
        </mxCell>
        <mxCell id="87" value="19.04.12" style="strokeColor=#DEEDFF" parent="1" vertex="1">
          <mxGeometry x="526.5000000000019" y="460.0000000000001" width="80.00000000000028" height="20" as="geometry" />
        </mxCell>
        <mxCell id="88" value="19.04.12" style="strokeColor=#DEEDFF" parent="1" vertex="1">
          <mxGeometry x="606.5000000000015" y="460.0000000000004" width="80.00000000000028" height="20" as="geometry" />
        </mxCell>
        <mxCell id="89" value="6" style="strokeColor=#DEEDFF" parent="1" vertex="1">
          <mxGeometry x="86.4999999999999" y="480.00000000000045" width="40" height="20" as="geometry" />
        </mxCell>
        <mxCell id="90" value="Equipment layouting" style="align=left;strokeColor=#DEEDFF" parent="1" vertex="1">
          <mxGeometry x="126.4999999999999" y="480.00000000000045" width="320.0000000000001" height="20" as="geometry" />
        </mxCell>
        <mxCell id="91" value="3 days" style="strokeColor=#DEEDFF" parent="1" vertex="1">
          <mxGeometry x="446.50000000000165" y="480.00000000000034" width="80.00000000000028" height="20" as="geometry" />
        </mxCell>
        <mxCell id="92" value="20.04.12" style="strokeColor=#DEEDFF" parent="1" vertex="1">
          <mxGeometry x="526.5000000000019" y="480.00000000000034" width="80.00000000000028" height="20" as="geometry" />
        </mxCell>
        <mxCell id="93" value="24.04.12" style="strokeColor=#DEEDFF" parent="1" vertex="1">
          <mxGeometry x="606.5000000000015" y="480.0000000000007" width="80.00000000000028" height="20" as="geometry" />
        </mxCell>
        <mxCell id="94" value="7" style="strokeColor=#DEEDFF" parent="1" vertex="1">
          <mxGeometry x="86.50000000000063" y="500.0000000000007" width="40" height="20" as="geometry" />
        </mxCell>
        <mxCell id="95" value="Supervision and meetings" style="align=left;strokeColor=#DEEDFF" parent="1" vertex="1">
          <mxGeometry x="126.50000000000063" y="500.0000000000007" width="319.9999999999994" height="20" as="geometry" />
        </mxCell>
        <mxCell id="96" value="27 days" style="strokeColor=#DEEDFF" parent="1" vertex="1">
          <mxGeometry x="446.5000000000024" y="500.0000000000007" width="80.00000000000028" height="20" as="geometry" />
        </mxCell>
        <mxCell id="97" value="25.04.12" style="strokeColor=#DEEDFF" parent="1" vertex="1">
          <mxGeometry x="526.5000000000027" y="500.0000000000007" width="80.00000000000028" height="20" as="geometry" />
        </mxCell>
        <mxCell id="98" value="31.05.12" style="strokeColor=#DEEDFF" parent="1" vertex="1">
          <mxGeometry x="606.5000000000022" y="500.0000000000009" width="80.00000000000028" height="20" as="geometry" />
        </mxCell>
        <mxCell id="99" value="8" style="strokeColor=#DEEDFF" parent="1" vertex="1">
          <mxGeometry x="86.50000000000064" y="520.0000000000006" width="40" height="20" as="geometry" />
        </mxCell>
        <mxCell id="100" value="Bill of works" style="align=left;strokeColor=#DEEDFF" parent="1" vertex="1">
          <mxGeometry x="126.50000000000064" y="520.0000000000006" width="319.9999999999994" height="20" as="geometry" />
        </mxCell>
        <mxCell id="101" value="1 day" style="strokeColor=#DEEDFF" parent="1" vertex="1">
          <mxGeometry x="446.5000000000024" y="520.0000000000006" width="80.00000000000028" height="20" as="geometry" />
        </mxCell>
        <mxCell id="102" value="1.06.12" style="strokeColor=#DEEDFF" parent="1" vertex="1">
          <mxGeometry x="526.5000000000027" y="520.0000000000006" width="80.00000000000028" height="20" as="geometry" />
        </mxCell>
        <mxCell id="103" value="1.06.12" style="strokeColor=#DEEDFF" parent="1" vertex="1">
          <mxGeometry x="606.5000000000022" y="520.0000000000008" width="80.00000000000028" height="20" as="geometry" />
        </mxCell>
        <mxCell id="104" value="9" style="strokeColor=#DEEDFF;fillColor=#CCE5FF" parent="1" vertex="1">
          <mxGeometry x="86.50000000000037" y="540.000000000001" width="40" height="20" as="geometry" />
        </mxCell>
        <mxCell id="105" value="Workshop" style="align=left;strokeColor=#DEEDFF;fillColor=#CCE5FF" parent="1" vertex="1">
          <mxGeometry x="126.50000000000037" y="540.000000000001" width="319.99999999999966" height="20.00000000000003" as="geometry" />
        </mxCell>
        <mxCell id="106" value="20 days" style="strokeColor=#DEEDFF;fillColor=#CCE5FF" parent="1" vertex="1">
          <mxGeometry x="446.5000000000021" y="540.0000000000009" width="80.00000000000028" height="20" as="geometry" />
        </mxCell>
        <mxCell id="107" value="24.04.12" style="strokeColor=#DEEDFF;fillColor=#CCE5FF" parent="1" vertex="1">
          <mxGeometry x="526.5000000000025" y="540.0000000000009" width="80.00000000000028" height="20" as="geometry" />
        </mxCell>
        <mxCell id="108" value="21.05.12" style="strokeColor=#DEEDFF;fillColor=#CCE5FF" parent="1" vertex="1">
          <mxGeometry x="606.5000000000018" y="540.0000000000013" width="80.00000000000028" height="20" as="geometry" />
        </mxCell>
        <mxCell id="109" value="10" style="strokeColor=#DEEDFF" parent="1" vertex="1">
          <mxGeometry x="86.50000000000028" y="560.000000000001" width="40" height="20" as="geometry" />
        </mxCell>
        <mxCell id="110" value="Project examination and material comparison" style="align=left;strokeColor=#DEEDFF" parent="1" vertex="1">
          <mxGeometry x="126.50000000000028" y="560.000000000001" width="319.9999999999997" height="20" as="geometry" />
        </mxCell>
        <mxCell id="111" value="2 days" style="strokeColor=#DEEDFF" parent="1" vertex="1">
          <mxGeometry x="446.50000000000205" y="560.0000000000009" width="80.00000000000028" height="20" as="geometry" />
        </mxCell>
        <mxCell id="112" value="24.04.12" style="strokeColor=#DEEDFF" parent="1" vertex="1">
          <mxGeometry x="526.5000000000023" y="560.0000000000009" width="80.00000000000028" height="20" as="geometry" />
        </mxCell>
        <mxCell id="113" value="25.04.12" style="strokeColor=#DEEDFF" parent="1" vertex="1">
          <mxGeometry x="606.5000000000018" y="560.0000000000013" width="80.00000000000028" height="20" as="geometry" />
        </mxCell>
        <mxCell id="114" value="11" style="strokeColor=#DEEDFF" parent="1" vertex="1">
          <mxGeometry x="86.50000000000027" y="580.0000000000013" width="40" height="20" as="geometry" />
        </mxCell>
        <mxCell id="115" value="Preparing distribution boards" style="align=left;strokeColor=#DEEDFF" parent="1" vertex="1">
          <mxGeometry x="126.50000000000027" y="580.0000000000013" width="319.9999999999997" height="20" as="geometry" />
        </mxCell>
        <mxCell id="116" value="2 days" style="strokeColor=#DEEDFF" parent="1" vertex="1">
          <mxGeometry x="446.50000000000205" y="580.0000000000011" width="80.00000000000028" height="20" as="geometry" />
        </mxCell>
        <mxCell id="117" value="26.04.12" style="strokeColor=#DEEDFF" parent="1" vertex="1">
          <mxGeometry x="526.5000000000023" y="580.0000000000011" width="80.00000000000028" height="20" as="geometry" />
        </mxCell>
        <mxCell id="118" value="27.04.12" style="strokeColor=#DEEDFF" parent="1" vertex="1">
          <mxGeometry x="606.5000000000018" y="580.0000000000015" width="80.00000000000028" height="20" as="geometry" />
        </mxCell>
        <mxCell id="119" value="12" style="strokeColor=#DEEDFF" parent="1" vertex="1">
          <mxGeometry x="86.49999999999997" y="600.0000000000016" width="40" height="20" as="geometry" />
        </mxCell>
        <mxCell id="120" value="Mounting equipment" style="align=left;strokeColor=#DEEDFF" parent="1" vertex="1">
          <mxGeometry x="126.49999999999997" y="600.0000000000016" width="320" height="20" as="geometry" />
        </mxCell>
        <mxCell id="121" value="3 days" style="strokeColor=#DEEDFF" parent="1" vertex="1">
          <mxGeometry x="446.5000000000017" y="600.0000000000015" width="80.00000000000028" height="20" as="geometry" />
        </mxCell>
        <mxCell id="122" value="30.04.12" style="strokeColor=#DEEDFF" parent="1" vertex="1">
          <mxGeometry x="526.500000000002" y="600.0000000000015" width="80.00000000000028" height="20" as="geometry" />
        </mxCell>
        <mxCell id="123" value="2.05.12" style="strokeColor=#DEEDFF" parent="1" vertex="1">
          <mxGeometry x="606.5000000000015" y="600.0000000000018" width="80.00000000000028" height="20" as="geometry" />
        </mxCell>
        <mxCell id="124" value="13" style="strokeColor=#DEEDFF" parent="1" vertex="1">
          <mxGeometry x="86.49999999999999" y="620.0000000000014" width="40" height="20" as="geometry" />
        </mxCell>
        <mxCell id="125" value="Wiring" style="align=left;strokeColor=#DEEDFF" parent="1" vertex="1">
          <mxGeometry x="126.49999999999999" y="620.0000000000014" width="320" height="20" as="geometry" />
        </mxCell>
        <mxCell id="126" value="10 days" style="strokeColor=#DEEDFF" parent="1" vertex="1">
          <mxGeometry x="446.5000000000017" y="620.0000000000014" width="80.00000000000028" height="20" as="geometry" />
        </mxCell>
        <mxCell id="127" value="3.05.12" style="strokeColor=#DEEDFF" parent="1" vertex="1">
          <mxGeometry x="526.500000000002" y="620.0000000000014" width="80.00000000000028" height="20" as="geometry" />
        </mxCell>
        <mxCell id="128" value="16.05.12" style="strokeColor=#DEEDFF" parent="1" vertex="1">
          <mxGeometry x="606.5000000000015" y="620.0000000000016" width="80.00000000000028" height="20" as="geometry" />
        </mxCell>
        <mxCell id="129" value="14" style="strokeColor=#DEEDFF" parent="1" vertex="1">
          <mxGeometry x="86.49999999999972" y="640.0000000000018" width="40" height="20" as="geometry" />
        </mxCell>
        <mxCell id="130" value="Testing" style="align=left;strokeColor=#DEEDFF" parent="1" vertex="1">
          <mxGeometry x="126.49999999999972" y="640.0000000000018" width="320.0000000000003" height="20" as="geometry" />
        </mxCell>
        <mxCell id="131" value="2 days" style="strokeColor=#DEEDFF" parent="1" vertex="1">
          <mxGeometry x="446.5000000000014" y="640.0000000000018" width="80.00000000000028" height="20" as="geometry" />
        </mxCell>
        <mxCell id="132" value="17.05.12" style="strokeColor=#DEEDFF" parent="1" vertex="1">
          <mxGeometry x="526.5000000000018" y="640.0000000000018" width="80.00000000000028" height="20" as="geometry" />
        </mxCell>
        <mxCell id="133" value="18.05.12" style="strokeColor=#DEEDFF" parent="1" vertex="1">
          <mxGeometry x="606.5000000000011" y="640.000000000002" width="80.00000000000028" height="20" as="geometry" />
        </mxCell>
        <mxCell id="134" value="15" style="strokeColor=#DEEDFF;fillColor=#FFFFFF" parent="1" vertex="1">
          <mxGeometry x="86.49999999999963" y="660.0000000000018" width="40" height="20" as="geometry" />
        </mxCell>
        <mxCell id="135" value="Packaging" style="align=left;strokeColor=#DEEDFF;fillColor=#FFFFFF" parent="1" vertex="1">
          <mxGeometry x="126.49999999999963" y="660.0000000000018" width="320.00000000000034" height="20" as="geometry" />
        </mxCell>
        <mxCell id="136" value="1 day" style="strokeColor=#DEEDFF;fillColor=#FFFFFF" parent="1" vertex="1">
          <mxGeometry x="446.50000000000136" y="660.0000000000018" width="80.00000000000028" height="20" as="geometry" />
        </mxCell>
        <mxCell id="137" value="21.05.12" style="strokeColor=#DEEDFF;fillColor=#FFFFFF" parent="1" vertex="1">
          <mxGeometry x="526.5000000000016" y="660.0000000000018" width="80.00000000000028" height="20" as="geometry" />
        </mxCell>
        <mxCell id="138" value="21.05.12" style="strokeColor=#DEEDFF;fillColor=#FFFFFF" parent="1" vertex="1">
          <mxGeometry x="606.5000000000011" y="660.000000000002" width="80.00000000000028" height="20" as="geometry" />
        </mxCell>
        <mxCell id="139" value="16" style="strokeColor=#DEEDFF;fillColor=#CCE5FF" parent="1" vertex="1">
          <mxGeometry x="86.49999999999962" y="680.000000000002" width="40" height="20" as="geometry" />
        </mxCell>
        <mxCell id="140" value="Field" style="align=left;strokeColor=#DEEDFF;fillColor=#CCE5FF" parent="1" vertex="1">
          <mxGeometry x="126.49999999999962" y="680.000000000002" width="320.0000000000004" height="20" as="geometry" />
        </mxCell>
        <mxCell id="141" value="31 days" style="strokeColor=#DEEDFF;fillColor=#CCE5FF" parent="1" vertex="1">
          <mxGeometry x="446.50000000000136" y="680.000000000002" width="80.00000000000028" height="20" as="geometry" />
        </mxCell>
        <mxCell id="142" value="19.04.12" style="strokeColor=#DEEDFF;fillColor=#CCE5FF" parent="1" vertex="1">
          <mxGeometry x="526.5000000000016" y="680.000000000002" width="80.00000000000028" height="20" as="geometry" />
        </mxCell>
        <mxCell id="143" value="31.05.12" style="strokeColor=#DEEDFF;fillColor=#CCE5FF" parent="1" vertex="1">
          <mxGeometry x="606.5000000000011" y="680.0000000000023" width="80.00000000000028" height="20" as="geometry" />
        </mxCell>
        <mxCell id="144" value="17" style="strokeColor=#DEEDFF" parent="1" vertex="1">
          <mxGeometry x="86.500000000001" y="700.0000000000023" width="40" height="20" as="geometry" />
        </mxCell>
        <mxCell id="145" value="Field preparations and digging" style="align=left;strokeColor=#DEEDFF" parent="1" vertex="1">
          <mxGeometry x="126.500000000001" y="700.0000000000023" width="319.999999999999" height="20" as="geometry" />
        </mxCell>
        <mxCell id="146" value="7 days" style="strokeColor=#DEEDFF" parent="1" vertex="1">
          <mxGeometry x="446.50000000000273" y="700.0000000000023" width="80.00000000000028" height="20" as="geometry" />
        </mxCell>
        <mxCell id="147" value="19.04.12" style="strokeColor=#DEEDFF" parent="1" vertex="1">
          <mxGeometry x="526.500000000003" y="700.0000000000023" width="80.00000000000028" height="20" as="geometry" />
        </mxCell>
        <mxCell id="148" value="27.04.12" style="strokeColor=#DEEDFF" parent="1" vertex="1">
          <mxGeometry x="606.5000000000025" y="700.0000000000025" width="80.00000000000028" height="20" as="geometry" />
        </mxCell>
        <mxCell id="149" value="18" style="strokeColor=#DEEDFF" parent="1" vertex="1">
          <mxGeometry x="86.50000000000102" y="720.0000000000022" width="40" height="20" as="geometry" />
        </mxCell>
        <mxCell id="150" value="Cable laying" style="align=left;strokeColor=#DEEDFF" parent="1" vertex="1">
          <mxGeometry x="126.50000000000102" y="720.0000000000022" width="319.999999999999" height="20" as="geometry" />
        </mxCell>
        <mxCell id="151" value="4 days" style="strokeColor=#DEEDFF" parent="1" vertex="1">
          <mxGeometry x="446.50000000000273" y="720.000000000002" width="80.00000000000028" height="20" as="geometry" />
        </mxCell>
        <mxCell id="152" value="30.04.12" style="strokeColor=#DEEDFF" parent="1" vertex="1">
          <mxGeometry x="526.500000000003" y="720.000000000002" width="80.00000000000028" height="20" as="geometry" />
        </mxCell>
        <mxCell id="153" value="3.05.12" style="strokeColor=#DEEDFF" parent="1" vertex="1">
          <mxGeometry x="606.5000000000025" y="720.0000000000024" width="80.00000000000028" height="20" as="geometry" />
        </mxCell>
        <mxCell id="154" value="19" style="strokeColor=#DEEDFF" parent="1" vertex="1">
          <mxGeometry x="86.50000000000074" y="740.0000000000025" width="40" height="20" as="geometry" />
        </mxCell>
        <mxCell id="155" value="Installation laying" style="align=left;strokeColor=#DEEDFF" parent="1" vertex="1">
          <mxGeometry x="126.50000000000074" y="740.0000000000025" width="319.99999999999926" height="20" as="geometry" />
        </mxCell>
        <mxCell id="156" value="13 days" style="strokeColor=#DEEDFF" parent="1" vertex="1">
          <mxGeometry x="446.50000000000244" y="740.0000000000025" width="80.00000000000028" height="20" as="geometry" />
        </mxCell>
        <mxCell id="157" value="4.05.12" style="strokeColor=#DEEDFF" parent="1" vertex="1">
          <mxGeometry x="526.5000000000027" y="740.0000000000025" width="80.00000000000028" height="20" as="geometry" />
        </mxCell>
        <mxCell id="158" value="22.05.12" style="strokeColor=#DEEDFF" parent="1" vertex="1">
          <mxGeometry x="606.5000000000023" y="740.0000000000027" width="80.00000000000028" height="20" as="geometry" />
        </mxCell>
        <mxCell id="159" value="20" style="strokeColor=#DEEDFF" parent="1" vertex="1">
          <mxGeometry x="86.50000000000065" y="760.0000000000025" width="40" height="20" as="geometry" />
        </mxCell>
        <mxCell id="160" value="Mount distribution boards" style="align=left;strokeColor=#DEEDFF" parent="1" vertex="1">
          <mxGeometry x="126.50000000000065" y="760.0000000000025" width="319.9999999999993" height="20" as="geometry" />
        </mxCell>
        <mxCell id="161" value="1 day" style="strokeColor=#DEEDFF" parent="1" vertex="1">
          <mxGeometry x="446.5000000000024" y="760.0000000000025" width="80.00000000000028" height="20" as="geometry" />
        </mxCell>
        <mxCell id="162" value="23.05.12" style="strokeColor=#DEEDFF" parent="1" vertex="1">
          <mxGeometry x="526.5000000000027" y="760.0000000000025" width="80.00000000000028" height="20" as="geometry" />
        </mxCell>
        <mxCell id="163" value="23.05.12" style="strokeColor=#DEEDFF" parent="1" vertex="1">
          <mxGeometry x="606.5000000000023" y="760.0000000000027" width="80.00000000000028" height="20" as="geometry" />
        </mxCell>
        <mxCell id="164" value="21" style="strokeColor=#DEEDFF" parent="1" vertex="1">
          <mxGeometry x="86.50000000000065" y="780.0000000000028" width="40" height="20" as="geometry" />
        </mxCell>
        <mxCell id="165" value="Wiring distribution boards" style="align=left;strokeColor=#DEEDFF" parent="1" vertex="1">
          <mxGeometry x="126.50000000000065" y="780.0000000000028" width="319.9999999999993" height="20" as="geometry" />
        </mxCell>
        <mxCell id="166" value="4 days" style="strokeColor=#DEEDFF" parent="1" vertex="1">
          <mxGeometry x="446.5000000000024" y="780.0000000000027" width="80.00000000000028" height="20" as="geometry" />
        </mxCell>
        <mxCell id="167" value="24.05.12" style="strokeColor=#DEEDFF" parent="1" vertex="1">
          <mxGeometry x="526.5000000000027" y="780.0000000000027" width="80.00000000000028" height="20" as="geometry" />
        </mxCell>
        <mxCell id="168" value="29.05.12" style="strokeColor=#DEEDFF" parent="1" vertex="1">
          <mxGeometry x="606.5000000000023" y="780.0000000000031" width="80.00000000000028" height="20" as="geometry" />
        </mxCell>
        <mxCell id="169" value="22" style="strokeColor=#DEEDFF" parent="1" vertex="1">
          <mxGeometry x="86.50000000000136" y="800.0000000000031" width="40" height="20" as="geometry" />
        </mxCell>
        <mxCell id="170" value="Testing" style="align=left;strokeColor=#DEEDFF" parent="1" vertex="1">
          <mxGeometry x="126.50000000000136" y="800.0000000000031" width="319.99999999999864" height="20" as="geometry" />
        </mxCell>
        <mxCell id="171" value="2 days" style="strokeColor=#DEEDFF" parent="1" vertex="1">
          <mxGeometry x="446.5000000000031" y="800.000000000003" width="80.00000000000028" height="20" as="geometry" />
        </mxCell>
        <mxCell id="172" value="30.05.12" style="strokeColor=#DEEDFF" parent="1" vertex="1">
          <mxGeometry x="526.5000000000034" y="800.000000000003" width="80.00000000000028" height="20" as="geometry" />
        </mxCell>
        <mxCell id="173" value="31.05.12" style="strokeColor=#DEEDFF" parent="1" vertex="1">
          <mxGeometry x="606.500000000003" y="800.0000000000033" width="80.00000000000028" height="20" as="geometry" />
        </mxCell>
        <mxCell id="174" value="23" style="strokeColor=#DEEDFF" parent="1" vertex="1">
          <mxGeometry x="86.50000000000139" y="820.000000000003" width="40" height="20" as="geometry" />
        </mxCell>
        <mxCell id="175" value="" style="align=left;strokeColor=#DEEDFF" parent="1" vertex="1">
          <mxGeometry x="126.50000000000139" y="820.000000000003" width="319.99999999999864" height="20" as="geometry" />
        </mxCell>
        <mxCell id="176" value="" style="strokeColor=#DEEDFF" parent="1" vertex="1">
          <mxGeometry x="446.5000000000031" y="820.000000000003" width="80.00000000000028" height="20" as="geometry" />
        </mxCell>
        <mxCell id="177" value="" style="strokeColor=#DEEDFF" parent="1" vertex="1">
          <mxGeometry x="526.5000000000034" y="820.000000000003" width="80.00000000000028" height="20" as="geometry" />
        </mxCell>
        <mxCell id="178" value="" style="strokeColor=#DEEDFF" parent="1" vertex="1">
          <mxGeometry x="606.500000000003" y="820.0000000000032" width="80.00000000000028" height="20" as="geometry" />
        </mxCell>
        <mxCell id="179" value="24" style="strokeColor=#DEEDFF" parent="1" vertex="1">
          <mxGeometry x="86.50000000000111" y="840.0000000000034" width="40" height="20" as="geometry" />
        </mxCell>
        <mxCell id="180" value="" style="align=left;strokeColor=#DEEDFF" parent="1" vertex="1">
          <mxGeometry x="126.50000000000111" y="840.0000000000034" width="319.99999999999886" height="20" as="geometry" />
        </mxCell>
        <mxCell id="181" value="" style="strokeColor=#DEEDFF" parent="1" vertex="1">
          <mxGeometry x="446.50000000000284" y="840.0000000000033" width="80.00000000000028" height="20" as="geometry" />
        </mxCell>
        <mxCell id="182" value="" style="strokeColor=#DEEDFF" parent="1" vertex="1">
          <mxGeometry x="526.5000000000032" y="840.0000000000033" width="80.00000000000028" height="20" as="geometry" />
        </mxCell>
        <mxCell id="183" value="" style="strokeColor=#DEEDFF" parent="1" vertex="1">
          <mxGeometry x="606.5000000000026" y="840.0000000000036" width="80.00000000000028" height="20" as="geometry" />
        </mxCell>
        <mxCell id="184" value="25" style="strokeColor=#DEEDFF" parent="1" vertex="1">
          <mxGeometry x="86.50000000000102" y="860.0000000000034" width="40" height="20" as="geometry" />
        </mxCell>
        <mxCell id="185" value="" style="align=left;strokeColor=#DEEDFF" parent="1" vertex="1">
          <mxGeometry x="126.50000000000102" y="860.0000000000034" width="319.999999999999" height="20" as="geometry" />
        </mxCell>
        <mxCell id="186" value="" style="strokeColor=#DEEDFF" parent="1" vertex="1">
          <mxGeometry x="446.5000000000028" y="860.0000000000033" width="80.00000000000028" height="20" as="geometry" />
        </mxCell>
        <mxCell id="187" value="" style="strokeColor=#DEEDFF" parent="1" vertex="1">
          <mxGeometry x="526.5000000000031" y="860.0000000000033" width="80.00000000000028" height="20" as="geometry" />
        </mxCell>
        <mxCell id="188" value="" style="strokeColor=#DEEDFF" parent="1" vertex="1">
          <mxGeometry x="606.5000000000026" y="860.0000000000036" width="80.00000000000028" height="20" as="geometry" />
        </mxCell>
        <mxCell id="189" value="26" style="strokeColor=#DEEDFF" parent="1" vertex="1">
          <mxGeometry x="86.50000000000102" y="880.0000000000036" width="40" height="20" as="geometry" />
        </mxCell>
        <mxCell id="190" value="" style="align=left;strokeColor=#DEEDFF" parent="1" vertex="1">
          <mxGeometry x="126.500000000001" y="880.0000000000036" width="319.999999999999" height="20" as="geometry" />
        </mxCell>
        <mxCell id="191" value="" style="strokeColor=#DEEDFF" parent="1" vertex="1">
          <mxGeometry x="446.5000000000028" y="880.0000000000035" width="80.00000000000028" height="20" as="geometry" />
        </mxCell>
        <mxCell id="192" value="" style="strokeColor=#DEEDFF" parent="1" vertex="1">
          <mxGeometry x="526.5000000000031" y="880.0000000000035" width="80.00000000000028" height="20" as="geometry" />
        </mxCell>
        <mxCell id="193" value="" style="strokeColor=#DEEDFF" parent="1" vertex="1">
          <mxGeometry x="606.5000000000026" y="880.0000000000039" width="80.00000000000028" height="20" as="geometry" />
        </mxCell>
        <mxCell id="194" value="" style="strokeColor=#DEEDFF" parent="1" vertex="1">
          <mxGeometry x="706.500000000002" y="380.00000000000387" width="20" height="520" as="geometry" />
        </mxCell>
        <mxCell id="195" value="" style="strokeColor=#DEEDFF" parent="1" vertex="1">
          <mxGeometry x="726.500000000002" y="380.00000000000387" width="20" height="520" as="geometry" />
        </mxCell>
        <mxCell id="196" value="" style="strokeColor=#DEEDFF" parent="1" vertex="1">
          <mxGeometry x="746.500000000002" y="380.00000000000387" width="20" height="520" as="geometry" />
        </mxCell>
        <mxCell id="197" value="" style="strokeColor=#DEEDFF" parent="1" vertex="1">
          <mxGeometry x="766.500000000002" y="380.00000000000387" width="20" height="520" as="geometry" />
        </mxCell>
        <mxCell id="198" value="" style="strokeColor=#DEEDFF;fillColor=#D4E1FF" parent="1" vertex="1">
          <mxGeometry x="786.500000000002" y="380.0000000000075" width="20" height="520" as="geometry" />
        </mxCell>
        <mxCell id="199" value="" style="strokeColor=#DEEDFF;fillColor=#D4E1FF" parent="1" vertex="1">
          <mxGeometry x="806.500000000002" y="380.0000000000075" width="20" height="520" as="geometry" />
        </mxCell>
        <mxCell id="200" value="" style="strokeColor=#DEEDFF" parent="1" vertex="1">
          <mxGeometry x="826.500000000002" y="380.0000000000075" width="20" height="520" as="geometry" />
        </mxCell>
        <mxCell id="201" value="" style="strokeColor=#DEEDFF" parent="1" vertex="1">
          <mxGeometry x="846.5000000000016" y="380.0000000000075" width="20" height="520" as="geometry" />
        </mxCell>
        <mxCell id="202" value="" style="strokeColor=#DEEDFF" parent="1" vertex="1">
          <mxGeometry x="866.5000000000016" y="380.00000000001114" width="20" height="520" as="geometry" />
        </mxCell>
        <mxCell id="203" value="" style="strokeColor=#DEEDFF" parent="1" vertex="1">
          <mxGeometry x="886.5000000000016" y="380.00000000001114" width="20" height="520" as="geometry" />
        </mxCell>
        <mxCell id="204" value="" style="strokeColor=#DEEDFF" parent="1" vertex="1">
          <mxGeometry x="906.5000000000016" y="380.00000000001114" width="20" height="520" as="geometry" />
        </mxCell>
        <mxCell id="205" value="" style="strokeColor=#DEEDFF;fillColor=#D4E1FF" parent="1" vertex="1">
          <mxGeometry x="926.5000000000018" y="380.00000000001114" width="20" height="520" as="geometry" />
        </mxCell>
        <mxCell id="206" value="" style="strokeColor=#DEEDFF;fillColor=#D4E1FF" parent="1" vertex="1">
          <mxGeometry x="946.5000000000018" y="380.0000000000148" width="20" height="520" as="geometry" />
        </mxCell>
        <mxCell id="207" value="" style="strokeColor=#DEEDFF" parent="1" vertex="1">
          <mxGeometry x="966.5000000000018" y="380.0000000000148" width="20" height="520" as="geometry" />
        </mxCell>
        <mxCell id="208" value="" style="strokeColor=#DEEDFF" parent="1" vertex="1">
          <mxGeometry x="986.5000000000018" y="380.0000000000148" width="20" height="520" as="geometry" />
        </mxCell>
        <mxCell id="209" value="" style="strokeColor=#DEEDFF" parent="1" vertex="1">
          <mxGeometry x="1006.5000000000018" y="380.0000000000002" width="20" height="520" as="geometry" />
        </mxCell>
        <mxCell id="210" value="" style="strokeColor=#DEEDFF" parent="1" vertex="1">
          <mxGeometry x="1026.5000000000018" y="380.00000000000387" width="20" height="520" as="geometry" />
        </mxCell>
        <mxCell id="211" value="" style="strokeColor=#DEEDFF" parent="1" vertex="1">
          <mxGeometry x="1046.5000000000018" y="380.00000000000387" width="20" height="520" as="geometry" />
        </mxCell>
        <mxCell id="212" value="" style="strokeColor=#DEEDFF;fillColor=#D4E1FF" parent="1" vertex="1">
          <mxGeometry x="1066.5000000000018" y="380.00000000000387" width="20" height="520" as="geometry" />
        </mxCell>
        <mxCell id="213" value="" style="strokeColor=#DEEDFF;fillColor=#D4E1FF" parent="1" vertex="1">
          <mxGeometry x="1086.5000000000018" y="380.0000000000148" width="20" height="520" as="geometry" />
        </mxCell>
        <mxCell id="214" value="" style="strokeColor=#DEEDFF" parent="1" vertex="1">
          <mxGeometry x="1106.5000000000018" y="380.0000000000184" width="20" height="520" as="geometry" />
        </mxCell>
        <mxCell id="215" value="" style="strokeColor=#DEEDFF" parent="1" vertex="1">
          <mxGeometry x="1126.5000000000018" y="380.0000000000184" width="20" height="520" as="geometry" />
        </mxCell>
        <mxCell id="216" value="" style="strokeColor=#DEEDFF" parent="1" vertex="1">
          <mxGeometry x="1146.5000000000018" y="380.0000000000184" width="20" height="520" as="geometry" />
        </mxCell>
        <mxCell id="217" value="" style="strokeColor=#DEEDFF" parent="1" vertex="1">
          <mxGeometry x="1166.500000000002" y="380.0000000000184" width="20" height="520" as="geometry" />
        </mxCell>
        <mxCell id="218" value="" style="strokeColor=#DEEDFF" parent="1" vertex="1">
          <mxGeometry x="1186.500000000002" y="380.00000000002206" width="20" height="520" as="geometry" />
        </mxCell>
        <mxCell id="219" value="" style="strokeColor=#DEEDFF;fillColor=#D4E1FF" parent="1" vertex="1">
          <mxGeometry x="1206.500000000002" y="380.00000000002206" width="20" height="520" as="geometry" />
        </mxCell>
        <mxCell id="220" value="" style="strokeColor=#DEEDFF;fillColor=#D4E1FF" parent="1" vertex="1">
          <mxGeometry x="1226.500000000002" y="380.00000000002206" width="20" height="520" as="geometry" />
        </mxCell>
        <mxCell id="221" value="" style="strokeColor=#DEEDFF" parent="1" vertex="1">
          <mxGeometry x="1246.500000000002" y="380.00000000002206" width="20" height="520" as="geometry" />
        </mxCell>
        <mxCell id="222" value="" style="strokeColor=#DEEDFF" parent="1" vertex="1">
          <mxGeometry x="1266.500000000002" y="380.0000000000257" width="20" height="520" as="geometry" />
        </mxCell>
        <mxCell id="223" value="" style="strokeColor=#DEEDFF" parent="1" vertex="1">
          <mxGeometry x="1286.500000000002" y="380.0000000000257" width="20" height="520" as="geometry" />
        </mxCell>
        <mxCell id="224" value="" style="strokeColor=#DEEDFF" parent="1" vertex="1">
          <mxGeometry x="1306.500000000002" y="380.0000000000257" width="20" height="520" as="geometry" />
        </mxCell>
        <mxCell id="225" value="" style="strokeColor=#DEEDFF" parent="1" vertex="1">
          <mxGeometry x="1326.5000000000016" y="380.0000000000257" width="20" height="520" as="geometry" />
        </mxCell>
        <mxCell id="226" value="" style="strokeColor=#DEEDFF;fillColor=#D4E1FF" parent="1" vertex="1">
          <mxGeometry x="1346.5000000000016" y="380.00000000002933" width="20" height="520" as="geometry" />
        </mxCell>
        <mxCell id="227" value="" style="strokeColor=#DEEDFF;fillColor=#D4E1FF" parent="1" vertex="1">
          <mxGeometry x="1366.5000000000016" y="380.00000000002933" width="20" height="520" as="geometry" />
        </mxCell>
        <mxCell id="228" value="" style="strokeColor=#DEEDFF" parent="1" vertex="1">
          <mxGeometry x="1386.5000000000016" y="380.00000000002933" width="20" height="520" as="geometry" />
        </mxCell>
        <mxCell id="229" value="" style="strokeColor=#DEEDFF" parent="1" vertex="1">
          <mxGeometry x="1406.5000000000016" y="380.00000000002933" width="20" height="520" as="geometry" />
        </mxCell>
        <mxCell id="230" value="" style="strokeColor=#DEEDFF" parent="1" vertex="1">
          <mxGeometry x="1426.5000000000016" y="380.00000000003297" width="20" height="520" as="geometry" />
        </mxCell>
        <mxCell id="231" value="" style="strokeColor=#DEEDFF" parent="1" vertex="1">
          <mxGeometry x="1446.5000000000016" y="380.00000000003297" width="20" height="520" as="geometry" />
        </mxCell>
        <mxCell id="232" value="" style="strokeColor=#DEEDFF" parent="1" vertex="1">
          <mxGeometry x="1466.5000000000016" y="380.00000000003297" width="20" height="520" as="geometry" />
        </mxCell>
        <mxCell id="233" value="" style="strokeColor=#DEEDFF;fillColor=#D4E1FF" parent="1" vertex="1">
          <mxGeometry x="1486.5000000000016" y="380.0000000000184" width="20" height="520" as="geometry" />
        </mxCell>
        <mxCell id="234" value="" style="strokeColor=#DEEDFF;fillColor=#D4E1FF" parent="1" vertex="1">
          <mxGeometry x="1506.5000000000016" y="380.00000000002206" width="20" height="520" as="geometry" />
        </mxCell>
        <mxCell id="235" value="" style="strokeColor=#DEEDFF" parent="1" vertex="1">
          <mxGeometry x="1526.5000000000016" y="380.00000000002206" width="20" height="520" as="geometry" />
        </mxCell>
        <mxCell id="236" value="" style="strokeColor=#DEEDFF" parent="1" vertex="1">
          <mxGeometry x="1546.5000000000016" y="380.00000000002206" width="20" height="520" as="geometry" />
        </mxCell>
        <mxCell id="237" value="" style="strokeColor=#DEEDFF" parent="1" vertex="1">
          <mxGeometry x="1566.5000000000016" y="380.00000000003297" width="20" height="520" as="geometry" />
        </mxCell>
        <mxCell id="238" value="" style="strokeColor=#DEEDFF" parent="1" vertex="1">
          <mxGeometry x="1586.5000000000016" y="380.0000000000366" width="20" height="520" as="geometry" />
        </mxCell>
        <mxCell id="239" value="" style="strokeColor=#DEEDFF" parent="1" vertex="1">
          <mxGeometry x="1606.5000000000016" y="380.0000000000366" width="20" height="520" as="geometry" />
        </mxCell>
        <mxCell id="240" value="" style="strokeColor=#DEEDFF;fillColor=#D4E1FF" parent="1" vertex="1">
          <mxGeometry x="1626.5000000000016" y="380.0000000000366" width="20" height="520" as="geometry" />
        </mxCell>
        <mxCell id="241" value="" style="strokeColor=#DEEDFF;fillColor=#D4E1FF" parent="1" vertex="1">
          <mxGeometry x="1646.5000000000018" y="380.0000000000366" width="20" height="520" as="geometry" />
        </mxCell>
        <mxCell id="2" value="Task Name" style="fillColor=#23445D;strokeColor=#FFFFFF;strokeWidth=2;fontColor=#FFFFFF;fontStyle=1" parent="1" vertex="1">
          <mxGeometry x="126.5" y="340" width="320" height="40" as="geometry" />
        </mxCell>
        <mxCell id="3" value="" style="fillColor=#23445D;strokeColor=#FFFFFF;strokeWidth=2;fontColor=#FFFFFF;fontStyle=1" parent="1" vertex="1">
          <mxGeometry x="86.5" y="340" width="40" height="40" as="geometry" />
        </mxCell>
        <mxCell id="4" value="16 Apr 12" style="fillColor=#23445D;strokeColor=#FFFFFF;strokeWidth=2;fontColor=#FFFFFF;fontStyle=1" parent="1" vertex="1">
          <mxGeometry x="686.5000000000018" y="340.0000000000001" width="140" height="20" as="geometry" />
        </mxCell>
        <mxCell id="5" value="M" style="fillColor=#23445D;strokeColor=#FFFFFF;strokeWidth=2;fontColor=#FFFFFF;fontStyle=1" parent="1" vertex="1">
          <mxGeometry x="686.5000000000018" y="360.0000000000001" width="20" height="20" as="geometry" />
        </mxCell>
        <mxCell id="6" value="T" style="fillColor=#23445D;strokeColor=#FFFFFF;strokeWidth=2;fontColor=#FFFFFF;fontStyle=1" parent="1" vertex="1">
          <mxGeometry x="706.5000000000018" y="360.0000000000001" width="20" height="20" as="geometry" />
        </mxCell>
        <mxCell id="7" value="W" style="fillColor=#23445D;strokeColor=#FFFFFF;strokeWidth=2;fontColor=#FFFFFF;fontStyle=1" parent="1" vertex="1">
          <mxGeometry x="726.5000000000018" y="360.0000000000001" width="20" height="20" as="geometry" />
        </mxCell>
        <mxCell id="8" value="T" style="fillColor=#23445D;strokeColor=#FFFFFF;strokeWidth=2;fontColor=#FFFFFF;fontStyle=1" parent="1" vertex="1">
          <mxGeometry x="746.5000000000018" y="360.0000000000001" width="20" height="20" as="geometry" />
        </mxCell>
        <mxCell id="9" value="F" style="fillColor=#23445D;strokeColor=#FFFFFF;strokeWidth=2;fontColor=#FFFFFF;fontStyle=1" parent="1" vertex="1">
          <mxGeometry x="766.5000000000016" y="360.0000000000001" width="20" height="20" as="geometry" />
        </mxCell>
        <mxCell id="10" value="S" style="fillColor=#23445D;strokeColor=#FFFFFF;strokeWidth=2;fontColor=#FFFFFF;fontStyle=1" parent="1" vertex="1">
          <mxGeometry x="786.5000000000016" y="360.0000000000001" width="20" height="20" as="geometry" />
        </mxCell>
        <mxCell id="11" value="S" style="fillColor=#23445D;strokeColor=#FFFFFF;strokeWidth=2;fontColor=#FFFFFF;fontStyle=1" parent="1" vertex="1">
          <mxGeometry x="806.5000000000016" y="360.0000000000001" width="20" height="20" as="geometry" />
        </mxCell>
        <mxCell id="12" value="Duration" style="fillColor=#23445D;strokeColor=#FFFFFF;strokeWidth=2;fontColor=#FFFFFF;fontStyle=1" parent="1" vertex="1">
          <mxGeometry x="446.50000000000176" y="340.00000000000006" width="80.00000000000006" height="40.00000000000001" as="geometry" />
        </mxCell>
        <mxCell id="13" value="Start" style="fillColor=#23445D;strokeColor=#FFFFFF;strokeWidth=2;fontColor=#FFFFFF;fontStyle=1" parent="1" vertex="1">
          <mxGeometry x="526.5000000000018" y="340.00000000000006" width="80.00000000000006" height="40.00000000000001" as="geometry" />
        </mxCell>
        <mxCell id="14" value="ETA" style="fillColor=#23445D;strokeColor=#FFFFFF;strokeWidth=2;fontColor=#FFFFFF;fontStyle=1" parent="1" vertex="1">
          <mxGeometry x="606.5000000000019" y="340.0000000000001" width="80.00000000000006" height="40.00000000000001" as="geometry" />
        </mxCell>
        <mxCell id="15" value="23 Apr 12" style="fillColor=#23445D;strokeColor=#FFFFFF;strokeWidth=2;fontColor=#FFFFFF;fontStyle=1" parent="1" vertex="1">
          <mxGeometry x="826.5000000000018" y="340.0000000000001" width="140" height="20" as="geometry" />
        </mxCell>
        <mxCell id="16" value="M" style="fillColor=#23445D;strokeColor=#FFFFFF;strokeWidth=2;fontColor=#FFFFFF;fontStyle=1" parent="1" vertex="1">
          <mxGeometry x="826.5000000000018" y="360.0000000000001" width="20" height="20" as="geometry" />
        </mxCell>
        <mxCell id="17" value="T" style="fillColor=#23445D;strokeColor=#FFFFFF;strokeWidth=2;fontColor=#FFFFFF;fontStyle=1" parent="1" vertex="1">
          <mxGeometry x="846.5000000000018" y="360.0000000000001" width="20" height="20" as="geometry" />
        </mxCell>
        <mxCell id="18" value="W" style="fillColor=#23445D;strokeColor=#FFFFFF;strokeWidth=2;fontColor=#FFFFFF;fontStyle=1" parent="1" vertex="1">
          <mxGeometry x="866.5000000000018" y="360.0000000000001" width="20" height="20" as="geometry" />
        </mxCell>
        <mxCell id="19" value="T" style="fillColor=#23445D;strokeColor=#FFFFFF;strokeWidth=2;fontColor=#FFFFFF;fontStyle=1" parent="1" vertex="1">
          <mxGeometry x="886.5000000000018" y="360.0000000000001" width="20" height="20" as="geometry" />
        </mxCell>
        <mxCell id="20" value="F" style="fillColor=#23445D;strokeColor=#FFFFFF;strokeWidth=2;fontColor=#FFFFFF;fontStyle=1" parent="1" vertex="1">
          <mxGeometry x="906.5000000000016" y="360.0000000000001" width="20" height="20" as="geometry" />
        </mxCell>
        <mxCell id="21" value="S" style="fillColor=#23445D;strokeColor=#FFFFFF;strokeWidth=2;fontColor=#FFFFFF;fontStyle=1" parent="1" vertex="1">
          <mxGeometry x="926.5000000000016" y="360.0000000000001" width="20" height="20" as="geometry" />
        </mxCell>
        <mxCell id="22" value="S" style="fillColor=#23445D;strokeColor=#FFFFFF;strokeWidth=2;fontColor=#FFFFFF;fontStyle=1" parent="1" vertex="1">
          <mxGeometry x="946.5000000000016" y="360.0000000000001" width="20" height="20" as="geometry" />
        </mxCell>
        <mxCell id="23" value="30 Apr 12" style="fillColor=#23445D;strokeColor=#FFFFFF;strokeWidth=2;fontColor=#FFFFFF;fontStyle=1" parent="1" vertex="1">
          <mxGeometry x="966.5000000000018" y="340.00000000000006" width="140" height="20" as="geometry" />
        </mxCell>
        <mxCell id="24" value="M" style="fillColor=#23445D;strokeColor=#FFFFFF;strokeWidth=2;fontColor=#FFFFFF;fontStyle=1" parent="1" vertex="1">
          <mxGeometry x="966.5000000000018" y="360.00000000000006" width="20" height="20" as="geometry" />
        </mxCell>
        <mxCell id="25" value="T" style="fillColor=#23445D;strokeColor=#FFFFFF;strokeWidth=2;fontColor=#FFFFFF;fontStyle=1" parent="1" vertex="1">
          <mxGeometry x="986.5000000000018" y="360.00000000000006" width="20" height="20" as="geometry" />
        </mxCell>
        <mxCell id="26" value="W" style="fillColor=#23445D;strokeColor=#FFFFFF;strokeWidth=2;fontColor=#FFFFFF;fontStyle=1" parent="1" vertex="1">
          <mxGeometry x="1006.5000000000018" y="360.00000000000006" width="20" height="20" as="geometry" />
        </mxCell>
        <mxCell id="27" value="T" style="fillColor=#23445D;strokeColor=#FFFFFF;strokeWidth=2;fontColor=#FFFFFF;fontStyle=1" parent="1" vertex="1">
          <mxGeometry x="1026.5000000000018" y="360.00000000000006" width="20" height="20" as="geometry" />
        </mxCell>
        <mxCell id="28" value="F" style="fillColor=#23445D;strokeColor=#FFFFFF;strokeWidth=2;fontColor=#FFFFFF;fontStyle=1" parent="1" vertex="1">
          <mxGeometry x="1046.5000000000016" y="360.00000000000006" width="20" height="20" as="geometry" />
        </mxCell>
        <mxCell id="29" value="S" style="fillColor=#23445D;strokeColor=#FFFFFF;strokeWidth=2;fontColor=#FFFFFF;fontStyle=1" parent="1" vertex="1">
          <mxGeometry x="1066.5000000000016" y="360.00000000000006" width="20" height="20" as="geometry" />
        </mxCell>
        <mxCell id="30" value="S" style="fillColor=#23445D;strokeColor=#FFFFFF;strokeWidth=2;fontColor=#FFFFFF;fontStyle=1" parent="1" vertex="1">
          <mxGeometry x="1086.5000000000016" y="360.00000000000006" width="20" height="20" as="geometry" />
        </mxCell>
        <mxCell id="31" value="7 May 12" style="fillColor=#23445D;strokeColor=#FFFFFF;strokeWidth=2;fontColor=#FFFFFF;fontStyle=1" parent="1" vertex="1">
          <mxGeometry x="1106.5000000000018" y="340.00000000000006" width="140" height="20" as="geometry" />
        </mxCell>
        <mxCell id="32" value="M" style="fillColor=#23445D;strokeColor=#FFFFFF;strokeWidth=2;fontColor=#FFFFFF;fontStyle=1" parent="1" vertex="1">
          <mxGeometry x="1106.5000000000018" y="360.00000000000006" width="20" height="20" as="geometry" />
        </mxCell>
        <mxCell id="33" value="T" style="fillColor=#23445D;strokeColor=#FFFFFF;strokeWidth=2;fontColor=#FFFFFF;fontStyle=1" parent="1" vertex="1">
          <mxGeometry x="1126.5000000000018" y="360.00000000000006" width="20" height="20" as="geometry" />
        </mxCell>
        <mxCell id="34" value="W" style="fillColor=#23445D;strokeColor=#FFFFFF;strokeWidth=2;fontColor=#FFFFFF;fontStyle=1" parent="1" vertex="1">
          <mxGeometry x="1146.5000000000018" y="360.00000000000006" width="20" height="20" as="geometry" />
        </mxCell>
        <mxCell id="35" value="T" style="fillColor=#23445D;strokeColor=#FFFFFF;strokeWidth=2;fontColor=#FFFFFF;fontStyle=1" parent="1" vertex="1">
          <mxGeometry x="1166.5000000000018" y="360.00000000000006" width="20" height="20" as="geometry" />
        </mxCell>
        <mxCell id="36" value="F" style="fillColor=#23445D;strokeColor=#FFFFFF;strokeWidth=2;fontColor=#FFFFFF;fontStyle=1" parent="1" vertex="1">
          <mxGeometry x="1186.5000000000016" y="360" width="20" height="20" as="geometry" />
        </mxCell>
        <mxCell id="37" value="S" style="fillColor=#23445D;strokeColor=#FFFFFF;strokeWidth=2;fontColor=#FFFFFF;fontStyle=1" parent="1" vertex="1">
          <mxGeometry x="1206.5000000000016" y="360" width="20" height="20" as="geometry" />
        </mxCell>
        <mxCell id="38" value="S" style="fillColor=#23445D;strokeColor=#FFFFFF;strokeWidth=2;fontColor=#FFFFFF;fontStyle=1" parent="1" vertex="1">
          <mxGeometry x="1226.5000000000016" y="360" width="20" height="20" as="geometry" />
        </mxCell>
        <mxCell id="39" value="14 May 12" style="fillColor=#23445D;strokeColor=#FFFFFF;strokeWidth=2;fontColor=#FFFFFF;fontStyle=1" parent="1" vertex="1">
          <mxGeometry x="1246.5000000000018" y="340.00000000000006" width="140" height="20" as="geometry" />
        </mxCell>
        <mxCell id="40" value="M" style="fillColor=#23445D;strokeColor=#FFFFFF;strokeWidth=2;fontColor=#FFFFFF;fontStyle=1" parent="1" vertex="1">
          <mxGeometry x="1246.5000000000018" y="360.00000000000006" width="20" height="20" as="geometry" />
        </mxCell>
        <mxCell id="41" value="T" style="fillColor=#23445D;strokeColor=#FFFFFF;strokeWidth=2;fontColor=#FFFFFF;fontStyle=1" parent="1" vertex="1">
          <mxGeometry x="1266.5000000000018" y="360.00000000000006" width="20" height="20" as="geometry" />
        </mxCell>
        <mxCell id="42" value="W" style="fillColor=#23445D;strokeColor=#FFFFFF;strokeWidth=2;fontColor=#FFFFFF;fontStyle=1" parent="1" vertex="1">
          <mxGeometry x="1286.5000000000018" y="360.00000000000006" width="20" height="20" as="geometry" />
        </mxCell>
        <mxCell id="43" value="T" style="fillColor=#23445D;strokeColor=#FFFFFF;strokeWidth=2;fontColor=#FFFFFF;fontStyle=1" parent="1" vertex="1">
          <mxGeometry x="1306.5000000000018" y="360.00000000000006" width="20" height="20" as="geometry" />
        </mxCell>
        <mxCell id="44" value="F" style="fillColor=#23445D;strokeColor=#FFFFFF;strokeWidth=2;fontColor=#FFFFFF;fontStyle=1" parent="1" vertex="1">
          <mxGeometry x="1326.5000000000016" y="360" width="20" height="20" as="geometry" />
        </mxCell>
        <mxCell id="45" value="S" style="fillColor=#23445D;strokeColor=#FFFFFF;strokeWidth=2;fontColor=#FFFFFF;fontStyle=1" parent="1" vertex="1">
          <mxGeometry x="1346.5000000000016" y="360" width="20" height="20" as="geometry" />
        </mxCell>
        <mxCell id="46" value="S" style="fillColor=#23445D;strokeColor=#FFFFFF;strokeWidth=2;fontColor=#FFFFFF;fontStyle=1" parent="1" vertex="1">
          <mxGeometry x="1366.5000000000016" y="360" width="20" height="20" as="geometry" />
        </mxCell>
        <mxCell id="47" value="21 May 12" style="fillColor=#23445D;strokeColor=#FFFFFF;strokeWidth=2;fontColor=#FFFFFF;fontStyle=1" parent="1" vertex="1">
          <mxGeometry x="1386.5000000000018" y="340" width="140" height="20" as="geometry" />
        </mxCell>
        <mxCell id="48" value="M" style="fillColor=#23445D;strokeColor=#FFFFFF;strokeWidth=2;fontColor=#FFFFFF;fontStyle=1" parent="1" vertex="1">
          <mxGeometry x="1386.5000000000018" y="360" width="20" height="20" as="geometry" />
        </mxCell>
        <mxCell id="49" value="T" style="fillColor=#23445D;strokeColor=#FFFFFF;strokeWidth=2;fontColor=#FFFFFF;fontStyle=1" parent="1" vertex="1">
          <mxGeometry x="1406.5000000000018" y="360" width="20" height="20" as="geometry" />
        </mxCell>
        <mxCell id="50" value="W" style="fillColor=#23445D;strokeColor=#FFFFFF;strokeWidth=2;fontColor=#FFFFFF;fontStyle=1" parent="1" vertex="1">
          <mxGeometry x="1426.5000000000018" y="360" width="20" height="20" as="geometry" />
        </mxCell>
        <mxCell id="51" value="T" style="fillColor=#23445D;strokeColor=#FFFFFF;strokeWidth=2;fontColor=#FFFFFF;fontStyle=1" parent="1" vertex="1">
          <mxGeometry x="1446.5000000000018" y="360" width="20" height="20" as="geometry" />
        </mxCell>
        <mxCell id="52" value="F" style="fillColor=#23445D;strokeColor=#FFFFFF;strokeWidth=2;fontColor=#FFFFFF;fontStyle=1" parent="1" vertex="1">
          <mxGeometry x="1466.5000000000016" y="360" width="20" height="20" as="geometry" />
        </mxCell>
        <mxCell id="53" value="S" style="fillColor=#23445D;strokeColor=#FFFFFF;strokeWidth=2;fontColor=#FFFFFF;fontStyle=1" parent="1" vertex="1">
          <mxGeometry x="1486.5000000000016" y="360" width="20" height="20" as="geometry" />
        </mxCell>
        <mxCell id="54" value="S" style="fillColor=#23445D;strokeColor=#FFFFFF;strokeWidth=2;fontColor=#FFFFFF;fontStyle=1" parent="1" vertex="1">
          <mxGeometry x="1506.5000000000016" y="360" width="20" height="20" as="geometry" />
        </mxCell>
        <mxCell id="55" value="28 May 12" style="fillColor=#23445D;strokeColor=#FFFFFF;strokeWidth=2;fontColor=#FFFFFF;fontStyle=1" parent="1" vertex="1">
          <mxGeometry x="1526.5000000000018" y="340.0000000000001" width="140" height="20" as="geometry" />
        </mxCell>
        <mxCell id="56" value="M" style="fillColor=#23445D;strokeColor=#FFFFFF;strokeWidth=2;fontColor=#FFFFFF;fontStyle=1" parent="1" vertex="1">
          <mxGeometry x="1526.5000000000018" y="360.0000000000001" width="20" height="20" as="geometry" />
        </mxCell>
        <mxCell id="57" value="T" style="fillColor=#23445D;strokeColor=#FFFFFF;strokeWidth=2;fontColor=#FFFFFF;fontStyle=1" parent="1" vertex="1">
          <mxGeometry x="1546.5000000000018" y="360.0000000000001" width="20" height="20" as="geometry" />
        </mxCell>
        <mxCell id="58" value="W" style="fillColor=#23445D;strokeColor=#FFFFFF;strokeWidth=2;fontColor=#FFFFFF;fontStyle=1" parent="1" vertex="1">
          <mxGeometry x="1566.5000000000018" y="360.0000000000001" width="20" height="20" as="geometry" />
        </mxCell>
        <mxCell id="59" value="T" style="fillColor=#23445D;strokeColor=#FFFFFF;strokeWidth=2;fontColor=#FFFFFF;fontStyle=1" parent="1" vertex="1">
          <mxGeometry x="1586.5000000000018" y="360.0000000000001" width="20" height="20" as="geometry" />
        </mxCell>
        <mxCell id="60" value="F" style="fillColor=#23445D;strokeColor=#FFFFFF;strokeWidth=2;fontColor=#FFFFFF;fontStyle=1" parent="1" vertex="1">
          <mxGeometry x="1606.5000000000016" y="360.0000000000001" width="20" height="20" as="geometry" />
        </mxCell>
        <mxCell id="61" value="S" style="fillColor=#23445D;strokeColor=#FFFFFF;strokeWidth=2;fontColor=#FFFFFF;fontStyle=1" parent="1" vertex="1">
          <mxGeometry x="1626.5000000000016" y="360.0000000000001" width="20" height="20" as="geometry" />
        </mxCell>
        <mxCell id="62" value="S" style="fillColor=#23445D;strokeColor=#FFFFFF;strokeWidth=2;fontColor=#FFFFFF;fontStyle=1" parent="1" vertex="1">
          <mxGeometry x="1646.5000000000016" y="360.0000000000001" width="20" height="20" as="geometry" />
        </mxCell>
        <mxCell id="242" value="" style="shape=mxgraph.flowchart.process;fillColor=#AE4132;strokeColor=#000000;strokeWidth=2;opacity=50" parent="1" vertex="1">
          <mxGeometry x="686.5000000000015" y="400.0000000000004" width="940.0000000000006" height="19.99999999999983" as="geometry" />
        </mxCell>
        <mxCell id="243" value="" style="shape=mxgraph.arrows.bent_right_arrow;fillColor=#AE4132;strokeColor=none;strokeWidth=2;direction=south" parent="1" vertex="1">
          <mxGeometry x="706.500000000002" y="429.99999999999966" width="10.000000000000341" height="9.99999999999983" as="geometry" />
        </mxCell>
        <mxCell id="244" value="" style="shape=mxgraph.flowchart.process;fillColor=#AE4132;strokeColor=none;strokeWidth=2;opacity=50" parent="1" vertex="1">
          <mxGeometry x="686.5000000000032" y="419.9999999999997" width="19.999999999998863" height="19.99999999999983" as="geometry" />
        </mxCell>
        <mxCell id="245" value="" style="shape=mxgraph.flowchart.process;fillColor=#AE4132;strokeColor=none;strokeWidth=2;opacity=50" parent="1" vertex="1">
          <mxGeometry x="706.5000000000018" y="440.00000000000057" width="40.00000000000023" height="19.99999999999983" as="geometry" />
        </mxCell>
        <mxCell id="246" value="" style="shape=mxgraph.flowchart.process;fillColor=#AE4132;strokeColor=none;strokeWidth=2;opacity=50" parent="1" vertex="1">
          <mxGeometry x="746.5000000000018" y="460.00000000000085" width="19.999999999998863" height="19.99999999999983" as="geometry" />
        </mxCell>
        <mxCell id="247" value="" style="shape=mxgraph.flowchart.process;fillColor=#AE4132;strokeColor=none;strokeWidth=2;opacity=50" parent="1" vertex="1">
          <mxGeometry x="866.5000000000016" y="500.0000000000016" width="739.9999999999995" height="19.99999999999983" as="geometry" />
        </mxCell>
        <mxCell id="248" value="" style="shape=mxgraph.flowchart.process;fillColor=#AE4132;strokeColor=none;strokeWidth=2;opacity=50" parent="1" vertex="1">
          <mxGeometry x="1606.5000000000032" y="520.0000000000014" width="19.999999999998863" height="19.99999999999983" as="geometry" />
        </mxCell>
        <mxCell id="249" value="" style="shape=mxgraph.arrows.bent_right_arrow;fillColor=#AE4132;strokeColor=none;strokeWidth=2;direction=south" parent="1" vertex="1">
          <mxGeometry x="746.500000000001" y="449.99999999999943" width="10.000000000000341" height="9.99999999999983" as="geometry" />
        </mxCell>
        <mxCell id="250" value="" style="shape=mxgraph.arrows.bent_right_arrow;fillColor=#AE4132;strokeColor=none;strokeWidth=2;direction=south" parent="1" vertex="1">
          <mxGeometry x="766.5000000000007" y="470.0000000000001" width="10.000000000000341" height="9.99999999999983" as="geometry" />
        </mxCell>
        <mxCell id="251" value="" style="shape=mxgraph.arrows.bent_right_arrow;fillColor=#AE4132;strokeColor=none;strokeWidth=2;direction=south" parent="1" vertex="1">
          <mxGeometry x="1606.500000000002" y="510.0000000000016" width="10.000000000000341" height="9.99999999999983" as="geometry" />
        </mxCell>
        <mxCell id="252" value="" style="shape=mxgraph.flowchart.process;fillColor=#AE4132;strokeColor=none;strokeWidth=2;opacity=50" parent="1" vertex="1">
          <mxGeometry x="766.5000000000019" y="479.9999999999999" width="100.00000000000011" height="19.99999999999983" as="geometry" />
        </mxCell>
        <mxCell id="253" value="" style="shape=mxgraph.arrows.bent_right_arrow;fillColor=#AE4132;strokeColor=none;strokeWidth=2;direction=south" parent="1" vertex="1">
          <mxGeometry x="866.500000000002" y="489.99999999999983" width="10.000000000000341" height="9.99999999999983" as="geometry" />
        </mxCell>
        <mxCell id="254" value="" style="shape=mxgraph.flowchart.process;fillColor=#AE4132;strokeColor=#000000;strokeWidth=2;opacity=100" parent="1" vertex="1">
          <mxGeometry x="686.500000000001" y="380" width="940.0000000000006" height="19.99999999999983" as="geometry" />
        </mxCell>
        <mxCell id="255" value="" style="shape=mxgraph.flowchart.process;fillColor=#AE4132;strokeColor=none;strokeWidth=2;opacity=50" parent="1" vertex="1">
          <mxGeometry x="846.5" y="560.0000000000016" width="40" height="19.99999999999983" as="geometry" />
        </mxCell>
        <mxCell id="256" value="" style="shape=mxgraph.flowchart.process;fillColor=#AE4132;strokeColor=#000000;strokeWidth=2;opacity=50" parent="1" vertex="1">
          <mxGeometry x="846.5" y="540.0000000000006" width="560" height="19.9999999999998" as="geometry" />
        </mxCell>
        <mxCell id="257" value="" style="shape=mxgraph.flowchart.process;fillColor=#AE4132;strokeColor=none;strokeWidth=2;opacity=50" parent="1" vertex="1">
          <mxGeometry x="886.4999999999999" y="580.0000000000019" width="80.00000000000011" height="19.99999999999983" as="geometry" />
        </mxCell>
        <mxCell id="258" value="" style="shape=mxgraph.flowchart.process;fillColor=#AE4132;strokeColor=none;strokeWidth=2;opacity=50" parent="1" vertex="1">
          <mxGeometry x="966.4999999999999" y="600.0000000000011" width="60.000000000000114" height="19.99999999999983" as="geometry" />
        </mxCell>
        <mxCell id="259" value="" style="shape=mxgraph.flowchart.process;fillColor=#AE4132;strokeColor=none;strokeWidth=2;opacity=50" parent="1" vertex="1">
          <mxGeometry x="1026.5000000000018" y="620.0000000000005" width="279.99999999999807" height="19.99999999999983" as="geometry" />
        </mxCell>
        <mxCell id="260" value="" style="shape=mxgraph.flowchart.process;fillColor=#AE4132;strokeColor=none;strokeWidth=2;opacity=50" parent="1" vertex="1">
          <mxGeometry x="1306.500000000002" y="640.0000000000002" width="79.99999999999795" height="19.99999999999983" as="geometry" />
        </mxCell>
        <mxCell id="261" value="" style="shape=mxgraph.flowchart.process;fillColor=#AE4132;strokeColor=none;strokeWidth=2;opacity=50" parent="1" vertex="1">
          <mxGeometry x="1386.5000000000039" y="660.0000000000001" width="19.999999999996135" height="19.99999999999983" as="geometry" />
        </mxCell>
        <mxCell id="262" value="" style="shape=mxgraph.flowchart.process;fillColor=#AE4132;strokeColor=none;strokeWidth=2;opacity=50" parent="1" vertex="1">
          <mxGeometry x="746.5000000000022" y="700.000000000002" width="219.99999999999784" height="19.99999999999983" as="geometry" />
        </mxCell>
        <mxCell id="263" value="" style="shape=mxgraph.flowchart.process;fillColor=#AE4132;strokeColor=none;strokeWidth=2;opacity=50" parent="1" vertex="1">
          <mxGeometry x="966.5000000000017" y="720.0000000000018" width="79.9999999999983" height="19.99999999999983" as="geometry" />
        </mxCell>
        <mxCell id="264" value="" style="shape=mxgraph.flowchart.process;fillColor=#AE4132;strokeColor=none;strokeWidth=2;opacity=50" parent="1" vertex="1">
          <mxGeometry x="1046.5000000000036" y="740.0000000000016" width="379.9999999999965" height="19.99999999999983" as="geometry" />
        </mxCell>
        <mxCell id="265" value="" style="shape=mxgraph.flowchart.process;fillColor=#AE4132;strokeColor=none;strokeWidth=2;opacity=50" parent="1" vertex="1">
          <mxGeometry x="1426.5000000000034" y="760.0000000000014" width="19.99999999999659" height="19.99999999999983" as="geometry" />
        </mxCell>
        <mxCell id="266" value="" style="shape=mxgraph.flowchart.process;fillColor=#AE4132;strokeColor=none;strokeWidth=2;opacity=50" parent="1" vertex="1">
          <mxGeometry x="1446.5000000000052" y="780.0000000000035" width="119.99999999999477" height="19.99999999999983" as="geometry" />
        </mxCell>
        <mxCell id="267" value="" style="shape=mxgraph.flowchart.process;fillColor=#AE4132;strokeColor=none;strokeWidth=2;opacity=50" parent="1" vertex="1">
          <mxGeometry x="1566.5" y="800.0000000000011" width="40" height="19.99999999999983" as="geometry" />
        </mxCell>
        <mxCell id="268" value="" style="shape=mxgraph.flowchart.process;fillColor=#AE4132;strokeColor=#000000;strokeWidth=2;opacity=50" parent="1" vertex="1">
          <mxGeometry x="746.5" y="680.0000000000027" width="860" height="19.999999999999773" as="geometry" />
        </mxCell>
        <mxCell id="269" value="" style="shape=mxgraph.arrows.bent_right_arrow;fillColor=#AE4132;strokeColor=none;strokeWidth=2;direction=south" parent="1" vertex="1">
          <mxGeometry x="886.5000000000024" y="570.000000000002" width="10.000000000000341" height="9.99999999999983" as="geometry" />
        </mxCell>
        <mxCell id="270" value="" style="shape=mxgraph.arrows.bent_right_arrow;fillColor=#AE4132;strokeColor=none;strokeWidth=2;direction=south" parent="1" vertex="1">
          <mxGeometry x="966.4999999999998" y="590.0000000000019" width="10.000000000000341" height="9.99999999999983" as="geometry" />
        </mxCell>
        <mxCell id="271" value="" style="shape=mxgraph.arrows.bent_right_arrow;fillColor=#AE4132;strokeColor=none;strokeWidth=2;direction=south" parent="1" vertex="1">
          <mxGeometry x="1026.5" y="610.0000000000019" width="10.000000000000341" height="9.99999999999983" as="geometry" />
        </mxCell>
        <mxCell id="272" value="" style="shape=mxgraph.arrows.bent_right_arrow;fillColor=#AE4132;strokeColor=none;strokeWidth=2;direction=south" parent="1" vertex="1">
          <mxGeometry x="1306.5" y="630.0000000000368" width="10.000000000000341" height="9.99999999999983" as="geometry" />
        </mxCell>
        <mxCell id="273" value="" style="shape=mxgraph.arrows.bent_right_arrow;fillColor=#AE4132;strokeColor=none;strokeWidth=2;direction=south" parent="1" vertex="1">
          <mxGeometry x="1386.5" y="650.0000000000023" width="10.000000000000341" height="9.99999999999983" as="geometry" />
        </mxCell>
        <mxCell id="274" value="" style="shape=mxgraph.arrows.bent_right_arrow;fillColor=#AE4132;strokeColor=none;strokeWidth=2;direction=south" parent="1" vertex="1">
          <mxGeometry x="966.5000000000018" y="710.0000000000027" width="10.000000000000341" height="9.99999999999983" as="geometry" />
        </mxCell>
        <mxCell id="275" value="" style="shape=mxgraph.arrows.bent_right_arrow;fillColor=#AE4132;strokeColor=none;strokeWidth=2;direction=south" parent="1" vertex="1">
          <mxGeometry x="1046.5000000000036" y="730.000000000003" width="10.000000000000341" height="9.99999999999983" as="geometry" />
        </mxCell>
        <mxCell id="276" value="" style="shape=mxgraph.arrows.bent_right_arrow;fillColor=#AE4132;strokeColor=none;strokeWidth=2;direction=south" parent="1" vertex="1">
          <mxGeometry x="1426.5000000000036" y="750.000000000003" width="10.000000000000341" height="9.99999999999983" as="geometry" />
        </mxCell>
        <mxCell id="277" value="" style="shape=mxgraph.arrows.bent_right_arrow;fillColor=#AE4132;strokeColor=none;strokeWidth=2;direction=south" parent="1" vertex="1">
          <mxGeometry x="1446.5" y="770.0000000000038" width="10.000000000000341" height="9.99999999999983" as="geometry" />
        </mxCell>
        <mxCell id="278" value="" style="shape=mxgraph.arrows.bent_right_arrow;fillColor=#AE4132;strokeColor=none;strokeWidth=2;direction=south" parent="1" vertex="1">
          <mxGeometry x="1566.5000000000018" y="790.0000000000014" width="10.000000000000341" height="9.99999999999983" as="geometry" />
        </mxCell>
        <mxCell id="ogPlFJNiPf8kdN2vCbjD-278" value="" style="shape=stencil(7VrJchw3DP2aubIIEtzOjvMfrrIcqaJILllO4r83mCm2mo89bzSXnHybBWhixwPYp/jh2/2nr3en4L+9vjz/effPw+fX+1P87RTCw9P93cvDq306xY+n+OHL88vdHy/P358+n79//dQp+6e/nv/uT/j3zKeu1c4U/I/zD+JS+e+H38/kjw9PO/LoUpjIkyuEPLgwk4s9Xi/Ti9M401cXhdHL/HwTUCuj92Wij/YEz+ibTvTqXQ3MPHWWP4kL5PnZ1TzRZ3ElE3m8a7MCRagDJLs4a1DNBsRC5jIQqVaXiArRuzj7oKlLjTBUJ7MOrVInaHI5LQxE6bSEXdvC/JihOB9R6UziLjWXwQ/NxUQc7Z2fRcp1eOb4BFNR5lDK1NPJIn8WSTP1g/1dIRnK8P2x45rzbWawcGShsaSbBbwQs1r+5Dn4ekaxfC6otBU05gcJWGFMpExOsOAHiZorxKpm8/n5ZgSmgdXPuf7G6ITFBeaC0QfitOSSIH2MjD7m2+gh1bo8LEyXGDJ9icOW/hQDTWV1tSE9SxujV6RnHUpH/d/RBy7P8nxP7LnKLzTeFBtC5A08jeq/o1faoaLHnGf+LdhvLF/Y863OAr3VRaKvdUCoi29HHjOIy7MGphPLGIkYoj3IGYNizvcixFBFQid32MIYyoJzAvWybB11Y5ABTY4Z2njexuCHVsel2sJmLkR2ZiN+MIkhUk2rxrCjhTaAx+waCY0eCBUZPIcuefaDeYYlZ9yQzcagThhDw/Sx6GLhrXYCmDWMCnKcz36U5x2DkoJqMEIaMrBozWF01HeeYMgm1UUHYqWiiw5mJVZkGnbNK36oOuDc3tPED4b/GoiUKbBo1vbghDKEPGYwOAehwSFkWzBnz8FAGaogA6saxgAZ16sGCY3OAIUs0OlCvB8ZueNgru5HJGTIpBp3rTMyNAI6jaGA1pHGhjEgJjQMw1zdRs6/nyHEG0XCen9V6dUP1Kz1wA/Uccaw+IHFRhcJlL4afaLIcCW+Q0WGKxkETc4YIg++vGQQq/c9+JakTtxxiB1kxO/FBFpOYAj6OEcZ5js4gsOTAyV4hzgwkyUEaYsHjrCU455DV8fRKN8bTJH2oNsZ8jKrCmcwm0APanQFYF2uzDkqfLNifVQBPOTRKC92auhyiYI4wwKhIEMgnu5oA+CJukJE6nhGkYEltSEmbO1KReqYbIEnyoZKxWg1BrY1MFypC55hZcOQKyTQ22bwEjZGALTB60voe40lJpJNVQp+aLSS9e0Q5LQfTenSyIFtVPiM4nH7YWcypU1FxA7KB7Mytk374ZKNr2sR4ENNB7bL0q2ylZiZFU7gyNXQvIAOZgZ2wjJnhcbLPfrNopFtJgvi1r40IRrksbbcLWXYtcGvJd3/sKS7cYn2a0k30etCz3omArx+iUOXdLh+2n65WCGgjiodR/oeH04I46bxUi+Am7Y+XbCLS8GO2Zd0vMWum3+WNFrGPdlm1cy9ZihiDiNN1G1pmfI6NCFWyuI83C9WOvBkj3uS6qmn09LP2nbTdcwQ8Aa5L0JYri3FdDegHHuujFjbjmgUTYXt751MrF53YNEWrVkXT4tdw9U192ymEmgXT9gCDeZmYqSAJTLxi2SPJU+FXuUtM2S/DCQKeyxhluGsZPtlKVnoICKIWYTf5G8NZtPXFQaXscJ7emmuzicgZ/VX8cbcX2nHsHT247gL5IDDeXopbnf9mDovkBdBctoqKwrDKpziCxqeplXCAdnza34sn/5KDgI5f7lk6dpCJ7Ib39S5Sm4f3l4K+vLw+Hh+p2j/P75EZD+dX0CKH38C);lineShape=1;strokeColor=default;" vertex="1" parent="1">
          <mxGeometry x="358.2930883198703" y="73.58778356713663" width="239.31318126349151" height="136.32003120291438" as="geometry" />
        </mxCell>
        <mxCell id="ogPlFJNiPf8kdN2vCbjD-279" value="" style="shape=stencil(7ZzZjt7GEYWfZm6J3pdrx3kPA5YjIY5kyHKWt091BuT8PEV+v33nAHM30vAMu6trObU0X/J3v3784ZcPLyn8+u3rl79/+NenH799fMl/eUnp0+ePH75++mY/veTvX/J3P335+uFvX7/89vnH13//8sN6cv30jy//XH/h36+42LbYFyqF/7z+T4lbmf/7n7++An7+9PkRkLbezoCypXIPmFtJ5+fnluL9831L4/R8zVuu98/XLdbz82Pr/f75vKV5er7ZX6ANb+O835621Oj5mM/Pz63CfuNWz+sfdRsgz7T/dn9+2l+A5+sWzn9/1q2AfPo2zvKfYwskn7DNpIAGBxbLFs4qNzuecOy7wA9A3gZsIYWtxLNMB77BlCKflWLYMQYAtC2c32BaMeGU01BAK6hG6dCaQ6/t3DLoddiaGFrbBgFMb86AbJaTAGCKL4D4DNDPurTkBpvOeYvnTZt5dFDufPiGHRDH7j/uAPWsfLFuk9xF3r3JASi8adPNqIBK52CAqYBMUjIDCgogl2qAWBRA6m2A5JYUaA9lK9UBeEnNSSnQSReNO2sPdA5lm15KtId6IdZMulTVka2TpoOrqt7x2NXvB0wGiMUt50mbtvgvJmpugVSjqQGlp2+Y54C41JEAzt0bJRm0pL4HwAeK0RggUqp9Zyl3gHnetHlvJBlj93NHfAhbJ3s4guwBqFsmKQ1VjW7eG+K0AdJZShbj0GuMnSccgLRzoUtACRfUZ4BY7VzT2Wv0hu6+JHX3PeMeSlYm0CZGUSOzQleNHnbQpXIc0wFI6FstKgdRvoERyADKBA6Tugb0rZ2Vz6hDIynNLQqg767tDjDcHojz1UP7DykFPIcat1acWGFJNTmARW56Q3aAsu/qGlA1VVqZA5y0HVMJbklgoib1PHTTgZZkJip7iFumJRmrnAqgdG8dU9clkVgNMJuKNYJqrAUEFSslTAYYZyfQGorVVtxkD4OXlHcq8vgG8HztYEcPe2jg+ezX022aDq51JVi2pEp7GO4NDVmlOUbJ42xXmRLFsCURa0bO1w+Tf1A+YsYGELGa/pI92B4kyzILiQQYStbNBieLVX3r4W3vAMKXlpVDjFuAqoBAqjHUps3xPFlSDwqg9HhJqSvg2TlIfKiYsRtAoqgBKMtqB8N7jHG0Bx+yKkrJlE+SprUkBmT3BorT/aC1D2KlUpqRnehPmiyu7HTqQZeIexv/kkKIAQb4ViOdaqKDpTT39OLBpimgjLArwgN1oFKL0VpRDQsAGXRpuLqGOTKqnBigO+9NAWVkzVBWQKE3ZMc1MgaUkZ3nm1jWtD1IYDdCRAFluEKl8UzyrXZwQtYtQcCAMjQC5aNYew3o+7k+1JeIVfaqNbIU9vLonQGJI4t1S+CM38qAByBund6Q9gTmKG5yeTztUfxIgZCqm88oErDQ15uIpPRzFI/uzqBKeo/hzbRCuFXCxHg48pb2xPf6+aqshOsZo+9hY38+YJI7pmp1QOI2g64/YDSfUeUZ0AHb85KwJqwQTe9OkbTZfoXPx4D9gyUgsYCGJdkxtMOSDp29A0gpcNWh6YyHlm/ME1GQGi5IlflMqtkRT0pi7Ngk5baIQG2WGfXcliegvlvcI8wB6OjrbA/CkEZAsmBSimcpjYhltNH28ugDIHBUk7hp9KFRRJiaG1pQoeqkuTsxN6NAxFSN5U15Q8VSoJ1rGQqIRM+T23Tl0sdUsXYmz9X57M5xc7HGswGZLiV+Q0gOQAWipinGAlBbs12oNxGeRZWDAsjiVvlmqpTICSxAUgAVrlfa1RVALK82F/zbXgG6Bbg9UNtx7cGVZJ9IqTp7oAx6nUNXADW8a9M0qXMiZq53OAPChDgpB+hH8+guIY5y0nlPwu94ZBUnkNAZj6RNkM7OePEAyRj6LuhrwFTyvCrdFB9cR3oBKAKZrx4KIHswwHBlNMqgDTBdXkXsMIagTb5VFnvyiqkAypMWICuA1HUeTZIHwHwiV+EOHdvqBpAQZADqnS7dCA7AJyetn9YxshvAnwPF3XlVz0T9dkWrdvi2W4A7aeIO09HKxeFYl6KrG+Cmp3qBxq5vnXR1AF5ScyZHdMYA3c1PUdtk2UN0UnpiQMOdA80HXRp1ebImx74pg1g26gCYlk2XZvVnuiFxdJkcZRB/GBBdD27iklaJSMhDxKTGopxG6oz0pA3Xzy27u72L1Mrv2X0vLiCBt2M9453qvlPd/yOq65WvYsnUckWVUuHeT3K5Yt6nZ+7yXZns6hkjSnelEFtSoRprVcK0sniq/4S9Zvs7k/yRXZI/uIXQdur8UKio9Iah3HgEdsYuKtobqEq2Co/eCVAEChc5ConVAKJ8K1BTz8HPmRxiuJNSlv5VwGr3cJNdJaBfMoDYdI5YYVr14vOmE8+n2x5ESrHxHoZSshi4u+QqrpV1z+UPce+C321ZGFzigm7V6imXpIfrmWTsag5XbC17zf/aX3TNyArmV8uri9ZhOW25KyGsOAZq/lAtExOT7oacB47V2fPiKmJEvrDqiwIomFutMT1pskyufwytHTxrOwR1FZkH7FfXV6ZGA78haQ6w5uVJTd3Y9bqZQr6lKOFe4yvUG6s6BLoGxp4AXNqN3bGi3cbGurT6ypJlTOTPa6jU1Royn7SOaHLxbcU9P5JG9jPcQEDE/v7i425KDieb6sWMAkVCcxnpDKiTfUxSglEnJj7GqmTY6onyrXEud5GKQuf7sNVB8t+HrRzgTzhspfMubR83ubM4XdLAfLK7TKlODFndz6VGTA+7K8i0jMxtNRmkPs4l+x4vCr94W9BxsbfB01ttdQGF9mAL0GGryTUil4C2iXzs7S7Hwx4ooJjURZeW8+QGkxYzwj59fg0I7hrC5FnzqT0vkxs5germWFrDSfDqroOY3LAg0129sfJN1eb6Gk9qRNUpX8c03QiblxLW6pKj9keZ6RoQ3XWQgrc76tUUNWVX6/q08xp4pWVcMAG8DtK13vh2MeEOkBzRpUm/4mYi3oYergHV3VtoOERRiqbpbfKlGZ+UcZ2rJFcN5EtkJWpabNS30ZKCXtAdPA+ZhwbFwZMj2RW7F99ngHjvxfdpSc2VrZhV5qZp2boIRxdDm06Nrqt2fCFRu8wFcyADNGcPFBQNIOdQJtKf3DTxW1ce+eqpDHbngl0KA0gESv3ZJWMpgiQujBlA1Dt2bJS/36zeAe83qy8Af7ab1V5KDbPddXACGNjWyK4msOqy/GkCUe/EAwvrawkyqx2xi52Tej4LMZTSZDd0WnjoNLsuxUr86EMa09XIClLp5EJWPy4FXwPKxcdAyC8lx/kG18hMEcQeJpe8YtF7nnMgdYhBG4kPQxLXiZxWf9bsCbEZHfiZDYvwUc1nRuRj7q6gURmyTzcC0ifShuAadhHLAe6aRuNgVdS/rOIYpYjus0dpb8ddl021FFD4wycxqUs1xksKEav6r3W/nz4EVNWUF4CG8aqeQeHuXnS3Zp8Bmtr+WhKcWnSfwzAAEQADZLckqstGzw0Df3CrqSWUgM2Z6OYaVg+U5qf8GyIyhuiGOQp/SiI67TYAEbE//lmy5wD74e0raD99+vnn14+oPf5ev5pm//X6xbX8/X8B);lineShape=1;strokeColor=default;" vertex="1" parent="1">
          <mxGeometry x="640.7161938631789" y="61.64986936043874" width="223.10561079688296" height="182.05520046312108" as="geometry" />
        </mxCell>
        <mxCell id="ogPlFJNiPf8kdN2vCbjD-280" value="" style="shape=stencil(lVvbclQ3EPwav6p0HUnPhPwHVZjgCsEUkNvfZyYuHa969vSBN2O2Lc29ZzT7UN58+/juy+NDjt++f33+/fHvp/ffPz6UXx5yfvr88fHr03f96aG8fShvPjx/ffzt6/Ofn9+//PvLO/uk/fTH81/2F/55wdUaRjdUjv++/KaN0OT/3/z6Avj09HkHxIGAMs8BZYaRd0APJRNACRlOkDDGOSDrjROekBIB5DCd0DWeA1IPcQdICqkTQAq57YBGr9TCrNvnewyJmCGHOvfPS4jt/PMxlF2nI4dM/r7/fA+TaCiHuBt55jDIfVqosn9eQi5EoREtMHuolQBayB1PaMTtVOS2m2AW7kUtiKCOEnNsVSoYeQRhoVNRq3K4+n2ABHGR0IiWilp199MqobITjmBfgKJqIIY2QNwAqrdOQkcBcQeki3zR1wUOQAyDydBD3mWQ5e1nWp27GQo3mzrafiGNDuLb+vm03yeFSGJTNT72vx+X2c8+XwT+frn4fAF5M3Mi9QDIjmGy+6u698+nTGNZDVbBJWYQZjENk12jWiMq86GJZdD8ltisaoLfr1RHGAyQQ4OqNlcOvA8oYYCXKoBEWm0h7sGv6SWxKzX069GoY2hukP1Kk0da7SvlHoAaOhN6hA6ATitzi1j751gp7T4grwscgBkayUetofMpgHmr8aGKVxJiB+USLaLQhcggdWn9AGhOJVfSsoHVU72LqLUnV88TzXm9oJbGXFnhPqBhEtbqORhAlogHQGiIdq0LAGg0D1u4QDzUFVJnAFDrKJQB6JUg8ykNYzRPtdT3VD/i4q5ndgAZ+qSUQZOK7IbTS3ZiaSWyEHF6SUYN1b0zAAqtD0b3AZCo0BrTKIPSRSJDnXeIVWa5VTCRifIknlvBcBq0rALpCQg4KsaZDGl3b1V0ZKkyowxagRgTUzvU/QRNbYOlmbgy6Q2AsXrTyUQAoz7SV9r6wc5N3Xv4sssyX1y5+lCr1jgWohGZgBouswAaWHZFg5ZYWoWGVsYATK2CEaeuUdmVZHWzt1MAVoG009m9tdVFV87sEPey2zh10JDv+5UsBomWuqM/RrmIDJq9wfmU87E0MzQLAUCWGu4D6gqXA1Apb9WKNiMCGCMbYxGFG0AjrqFVGSqQsvdI8pIyPJj3KICpVQHQjqmW6AmOSlsDRdKMAjrYodOIm9k1rcrI2JUyGq5GqlalUxH66Lyc5QyQwFt5W2wn7HYwrkx8SWWAkVJLNEQV0GF4UMMkzqeACrm1U1Y5MxYUza2F5Fa7EmS+TFmlagkqkJaYxoTWfgSyt6xsex+gZGcXWnPhZN7al5luR3vM+SbWh9dceAoQBIyLE6YDEF9KMeJQxigZywL+iMyzgBciUw53R02ZVkUFDHcCI98GiA7ADQEtyvUJ4rR04RuQXE1L/EpAZwzAYtQD1NJcrdBmmTNdCN0dgOWZiUMBCwh+AoZcov2xWdrJcAGYLh4urgSDVhOa22E6GZhaT2KUztQ94tI54OHk2v2mc78LBwe+/gNB6tPARZD6NHABSA7AneMnAd211JE2izbugarFGy0tcxU6gguOVdbfuymkF3SjujaoswqRsSMwMsAByT1uXJwAg7hW6YhJAQ2alItUltEORsr4CX1Xq9E+rlZIllWJIDNcxpe1GukDjdkB+DqfZE83rrQXGJY1IjLRInRiNA/vvwGwN+bhx/fHbPsMkDMCWMQN94yljRYbYg1BPqMAVlK0WcTuslECZC+4vm/i40qgJ2UuqU5ntNBz8Ffd12pw07QzgEzszFqiNFFcqmx8qCvuMe5iwUH8qC8tNZxdCWSQTLmA5mqoQAbgwxN8CsqrGzybSYG3SqRNiriS1SaXoaMMV7PB6gw3Vh45GyZKRoDwsbGfb7JWzsbGbtSX+Ni4ONdgL8e1Y26VTLWk4YKLJpU+NlX3KqL+ezH6hlGfzVQvHszgBP74qnbwVJdGXHJ7EYVPH5vrghqfb/rGrNOC0t0OUp/8Zaeh0CPSotjd1sLgPbiNK3dvHYWu/BgATqjUvfVKQNbtPZjLAP2DVj3GNVRLDU4Ya1R9ZgdIAjaPZG94CQv75B3K68PPAeBakoqFfQpl9+rekGZsJMTykrP0nPRVxJ6oEwKYL1nm2937phe8j4j4XKtH0F2B4Z7NO525aq5MgoZgbF1TXwGpI5W6NqQC5t/shOpGG4MXiIJFTvjra3UcTmsW21JTMg/triqacWmleP6Vgz2A6X/DlfKgybW4LJAm7cuMm8M+UuZrbW3tHx12oO/ypSJfKrQ7Lsec+7gQjWi7z26ESLOYLUhN+DwLtuKe4yLNw8b7C3yeTfr9Qlui3ZJfmCs0lK0fBIK7KvyZy8X9/inSrtiWs2CDrHMNDUx4toXIdtQcR3/dcju9EgSmhMoA4paQO9+krCi0DL4F517i+qB2ti1kKM+dbjmon8E4YxaaK5JbLZxC3xGSG1FOvibUcG5la79sU9uttBVKMNx9LhajI7r2yHyrGENfORObE7vUIpO+/aTkxm51GfE+QNAptEtioaMiQPZVx2ajkuwe4rWFYJ1eKVj5bVWFJSQ3rrcdI/4tB9xv6DR0FICvrYO26NWNexSQiKFtvdOdcLHeCb2kARjdaesCN4DMhG64bGYAzsA8gFWG2tzMl3/bpB4zsxvA1dasG2SwuURtuDtmAGaHeufbJhdfsZn+BM5Tf/pLPFcA/eH1O0Mfnj59evnK0e3/43eM9Fcv308qb/8D);lineShape=1;strokeColor=default;" vertex="1" parent="1">
          <mxGeometry x="909.4032711914069" y="40.710183288447865" width="266.3245493045324" height="228.54396092389277" as="geometry" />
        </mxCell>
        <mxCell id="ogPlFJNiPf8kdN2vCbjD-281" value="" style="shape=stencil(7ZzJjh3HEUW/preFnIe1LP+HAFEmYVoUKHr6e0eiXdVVN16dZ+0Io3ckuy+zMmO+EZkv+YffP/7024eXFH7/9vXLXz/889PP3z6+5D+9pPTp148fvn76Zn96yT++5B9++fL1w1++fvn7rz+//v23n9Zvrj/97cs/1v/wr1fcmFsIC5XCv1//paStvP7Ln18Bnz/9ega0rfcLIPdtNgDULc0roGyDVshbL1dA3GIBQNzmuABS33f1GBC2EK+AtLV+D+h9G/kCiGOrAwB1a9cVYsVT6nlL12ONZasZAHELSVcIcEptbEMAfYuw6da2Ua+nFHkFk7TIoe3H8BhQtiiqkbcGm255q9dPKnErFQHl+kll7mveAcZV+WrbCgjO9tCvBtTSlkH57JTG9ZPsoCvt4RDTAZjPJJ2LAvBY54NPKqR8QdW7ha2CpA2QrwZUTVnoWI8vPgBm5bTpuaWqgAYmug6xKSCRPYxtXiVdwy77O0AfCghkDwa4HqtpayLBDVW+MlBwC3BVjdK39sRrXOVQ2n4Mt6fUFYDHagYpNl33EHMHyE0BhVWjTgUkcgJmD1EBGVYw9Q5ZARgfonNkjQ0oqfIZINIKFj6CflJMAGgagUpB5evDpQ6FvYaXQ+PAHrYpx2rKQoE9bv26Qk1bIoDFfbHpunuqu+REoqgBJghulC1UBQwQnAHEey8AaKsBmnxS203qDiDu3gDkBCyFi3JKHe1h5XxXXapjS3RKduoCmKjeBigSdsOWQL3XClev0eIeMW73cBWcBfYnewgSRfMeYm7l0BTQ6ViLaqtlH/hJpktRAZQvmT2IxVn2QTZtFidx2nxhpE+yHwsgs6sc6jUsG29gD/bjeD3WwU7AknWRgxU5ZKLmW8UJzIhewwDxqhqz7GHyrhwQRzYHxjgDNFlhYq6xTr0ooNCms5roPMLkHUA3PbdJgkv7j48KJQQs5Awxgvsm0G8DiLoagJJvAxS3CQpBBhA/Y5J7soLUx9MKagrUac+cT4BEupG0LpuWbFAxanu4ur5Z+ZOiA6Q9972tB8TkBpICK1u/Cm5wdmJ+K4vbsJKCKo6qCZP5BarAV215NYh10JS4RgXYriacksVAMWrLrqmmsSibkwICCG7FcQkQHY915SIuKgZQ7+rirn0kAoradLWDBj9jAE2+x+6qHgOy0j8lowFZYdive8gDiyCr80QOuSLBZF8sFUfOWARZ2Sbe2AAkuJVqZ7cC6NIqF7rugSKKZf8Sd3PHZMNOPbhT6gRIWu7miIIzQLgGuWRxklaIqq1xYPJdws4OnXg7srg8VTXMB8AXmaaJdjcMorltXYgTTODsyKtk3pja56K0ydh9/+Pfz5q+rQMCvTOAZGPpCBZ3XyQnmgrm3QvQFUA8ZT7q2gNQ9+hyCxDqtCHtuABBARQassvsU9866Z2zzueCU1Z97NzoHUA6A6bakeTg2FwDEHVqAJX0RPs3gBSuaWJCmdNezJ82XcEPG6BXBTxZQTJQExxuOrpmBWegybFXOew+4TFgaI67aHg41uQqrNUDglMyZRanYb6/g8WZfUlnwEJqpU0Xx/zwsSaXZqzmAu2h6qYXmQoGZADxxKuYABNNTd1MPzoqdytMl+5RHZpch8ZyUspL0pFkn5IxClcpqRwWOQtOwJy7uBmLYBSiLSBP58joWGPbt3gAOGW1ACUFVuxYVcaoXsPWJF5m7uZ1+n3S7q61uh0CdU+q9hFS3LO/x1mMpnorIJLQHnlJ0myl+M0LUusxujyv7qXTze8XUbqAlVjeKarj9yPu12UY9v93COdVjcCyvobylaZjfqLSwTnght2xmPaC/3Si5B7NBqZ8UsbS00wkXc/IZBxIZlMLdAtTFMxNytWlPFSFpexCbcHcOTkWeq1J7rFrch653k5DK3o7aIrN60wkfU5I7lu6MGSQICC/upKqqoDAuapYpwEapZ6u4732QPl20xIgMs9t5iJU43KQdEpTq2FTR2K4Vp0nlWTgAv2YAjhFHWKhi+NXU0bisDyqSmjTKxJfTTQd9M8dZ6CAiZRY6XpKSx2JZPCpJ0u6THX1pixUr1reKKe0KmoCJHUzK7ll/kk/qWIGY5mphsPIwxBBExKT9JM5GXUCE6vD1rVrbxaXicBNuyKcvQYButrD08aS5BiHU3j8+037rAPprTGV94gZ++MzOcDAaDKrK9wqVtzTDfqYXuAKbl7EVJVKkukGfcxNUWa7OjYyFJBRL04dmxOCmIw5tQAwx1Zp19ONQlTMbg0gxMSazgBdMoB01A0weAXhewpPBRhACrFSMaOcLmAtb84AJbnrnqzcKZNkfCvAQIRbAPmkjCY6/WhQRr+39iCA9Ey/k5tmpVaAAbJbgTir1S4sDsCfpDNdCWv0tw7mCUD97nkQyKdjJbLxsY2Ss3xr3J50gwjQBcgKoPnXtWtnctTwXjbqjLo/kZxzG09sNDuTe+Iso/sk4pXn1PbEGkyDHPGPA7qSJasyJu1rLpkpmDlMz1wPrL0tjgoXuOgBjtTpqhqL0aGhrqoBIiYcbVi5hiuBKIOzZEY6uZEzuDWoIHvIPM469jD7P1I+zcshc787aC5gyT1NH1naqqxGxZ59rU5bj4G+u9S7u1QAea7g1JuHHK18qG4FiorlILbO/p7KuO4qmombXkWWkF0dvUapjjip2CAz5y7T2pZXEl1Xomrrav3QCkEDdeIBwTxcsVtxljp3DVkp4cCslYUCiEzXrxacWFzF9nXOWh1bzUQUWU7K2i3yh1YIOq0dK8phtcOibpqqssUsixOIGB+S43LSMQx310EITpewkxMdGcokXDzmek4hC5nHrj37pSwEcN0oU8dBgOT2wL7V4o0WEBFVY6gqrQwOxNBUMVYJRJMTylMWvlKVXa7UmWrdKcbj9wfXlW7Gp2MJ5zPchAnrI0KdWNOgZcAav4Hzj1qYJJ62TKpxqaLVZJ0MTuzi3aW81eKiYU5lb2JBfz31e5ZJwP//xgifAKSgb7z56YuIUIpd5+oXf0Mq5/roK0aRzKK2Y3PBzDa5y2arcuOWcrl+Uo1ITKwLeNK/nei5kktf1vUzWqFrubomiykguBX64E03tbXOQ76LZou6Ag0EmbfTFQomFykrV9KYX/X22TImecmNTdWGfM+Ks+4qGH5SUY7YQg61xZNjWJd6s6S1YcfDNG+DLafkAgezwoPWPnU0Vk9SeiYR3Ux2reK3/OQujXwfLnsfLrtRvu9uuMzdfzPVwDrMxellQKR8fjam40BQdlE08l2C7K43DO4uZ/UBGanJ1ZGUXAYj4ur+XYMDX2KxWkJy84CePruL/AklYMW5UEmNORI37W7VCfE8bz2kE0GHHEneCe2TElE2vGgg2XLD3kQprombudWdlefJiVvdLv+0YER95eIIieXyqF3ftcW63AX3xpN3eTSm5N6QyBGtvyYVXOZYVd1k2eKfqZnuRnBKxQGZ6q4tV2YwDCA32tcNXm7XC9+2LvLQCkMF1zJ2cOp0c5xcXTVH0DW26ZaV4W4Dn3lpx83sIyXmSVH7/8RLdq6WelB2eAQ00R61AT/Ks4tyQp+NiURpdze6Jjco369p/jc+vF/TfAj43q5pJvUCM+Go39JvuXU5nr06IY5pZCTRe9Mkug9+aqO7a5rMmXQ3ddB4D+aGhNdf1/Jp9CjqKbWA74sMl9dXvj/x/ojEHljfH5F4IIfv7REJVzAZgNiAcUzenQDEIQ5H4zQeYFkvyThJoz0ElUPly6x9upsyhd390IBSuaPp37VYL1yR965ayC22mN29uMq3q9J3AUVyBwNQ4tqD9hsNQAb0//usFw9/vD/r9XQC7Ht81iso7bBO6ck7YBKnA7uZqBMvNePgaHedxMq9awNoBOIZSl+XtYbT6d2NNfTwVNLy0kbGVsXK8IoCKDNuTYNiZ/qnVeVBl8LTHvKD+6ZEOzY3Q7DuDZCbSTrWUCaONTQ30f72msHdHiRkPbnescK4MFI8mtGaa9J2DFkmab0ayWNvpmo66xf5pkPWOy2RU4de3QoJHzDpQ4cnYuWMzEXRdZmOn/VSmp9veA/fMupI/wx3FTlz2B3dPZFSUPnWhQ33CAsFlOFez8mTU2l3T8AA5JcMIFHUAJhVTtdzDah8C+Dmd7Hwc5/09qTJ7aabAvB5ZjduVfgy73g0Mv/kWGXKYU3Akz1M93RlQicw/G0K7qH88WeynwPsD2+vcv/y6fPn10e9zz/XV7ztn15fAM8//gc=);lineShape=1;strokeColor=default;" vertex="1" parent="1">
          <mxGeometry x="542.1544656099568" y="55.27365980192235" width="789.47431555298" height="223.5584710199596" as="geometry" />
        </mxCell>
        <mxCell id="ogPlFJNiPf8kdN2vCbjD-282" value="" style="shape=stencil(lZzbct3GEUW/hq+ouV+eHec/XGU5YkWRXLKcxH/vnjA4BHYfLFhv5CGag5m+7d7dc17yD799/OnXDy8p/Pbt65d/fvjP68/fPr7kv72k9Pr544evr9/sp5f840v+4ZcvXz/84+uX3z///Pb7rz+tJ9dP//ry7/Uf/vsmF8uW+pJK4Y+3T+rYQv3fJ39/E/j0+vkokLfSzgJtyx0E0pbzWSBvPYNA2LqsELY2rwXG1urp+WJbgOebbrn0LcGWyxa6/v9Rrp9PW5rn909bHbDhLYoK+jbg/cN+fPvzLW+NDnQL8fz83CZpbBvj9HxvWwnXz2fd70h4nnXXzuN5O394/7a/7f78DNv69doeRjg/bydMJh22PHSBDAvEuPWkO/i/zV75wJAtZ1Sxedk4+0CfuGfzY3mlnrcJSot1K2evaWP37OcCbQtFzS6BG5hAO+vBQkumFfoWxfFtD3RK/UmkqBEExv7nvxgq4tRTsliRyffDVpKu0MH5zdvy+ZUsWgQSSHt8PgTgAaZhAhIfW9oibNocOkqA6bsqrwTq2TR6Qj2YgA8x5KIWg/PZlswfKKauV6oqQEHMVkiyQsEgYAJD/GFiGLa4186mYQ5UaA9Nbck0HehYLY6e/WFZKx3r2OJ505ld1ATmWXHJjhVyif15nm1ppTvYdA7bPCvOQhuZRn64yyO24p5z1vRvxgg7yGWr5+ctn4Jd5LrNs0OHLVD27Gp4gd9n7HDr/f0r/X9LHOJrGF/seVWABVWwiWIh77xhy16ECE1AvN9SBaUeE6hnR7CYRmZqe+jnM12GC2HbDlUyyfoEYqRpTU6pxh0mXgl0F4Vp0/YCkg374xiuNi04r9c7PUTBDB2ducQ99x0EJiHn5KJw38HicwGfSeo2IOQVCw6y6Qd0uhQ4G5+F7USbzordWkOHMwEJSCvO0x6SQ1YdM4npoZyDquXbRK8UFXKbHihBm4CYxjDMywLzvIdR2TScpg1DR9JD2YorGzIEslI18I3Op9R2PHvYA0a+tkfqA6yn4rl0taXOYaZMhWKmaao0qguVrWLhsNCm4E+rt0gg78X4AWSQx9W6u8shtlI9X7vWYwtFQPSuc8ezh/xAm26uhLYMlMC8LVaHczBeNSDYkrm8OtBu71fPS5FrKZGeL1rkVq6hDXyKmrEGsBiXJerx+3etSiaSPPa80EirgmWBdnbOGxy2BMQoblTQFZ/nxyFc7kGIoYy1XuuOGQr7rq4EtCJu3ynQ4o47rgQkpZulUIBpDvhY/sRjdSWDCVCQNJiTXflJVIaFRCEalrWTQN3VdDilCYpbtaPooe98y3MKKissWaQnHOtozjQipsMxlCEyWyJWb3paNWGGnmmvW46ZAfZgAk0UxxDXBLowkwM3bQJF4GFG854uu1nCreDTM2q1N9JOPVwJiKZH2UveKz1IdhscZsbUyGewpJFpTI3FC5aAi5otSTrsD97r0vhEoO7Uw9UrFSlCI5JWdkqiBwsLtILpQV8pIMU67UxEIGNCmUVx/apNSKCqHvrAHGcCU0BD3OP5c4HmiOi0sw/PBVzaNWsldmIOJUDNlhptejhrDRju7ZUEsdqxFlqhOUIjI4lrimtSSUdMWRY1hNozAUooZnxPbAn0YP4gmHg5EIf76CoHosVWNXVeYUR+pQcDe9Q0JEWLQlE03fZPngsUrXMHs+9mzOLT4yYuRUVkFkfIgZZtThUgPSwPjioQwKet0BYgvXQPr9SbO9aJiutFAdYYWNyvzlBWAerkGMB6sgIozgSkpWl7oDrX/EuobnOpRqcUlE6zeE7gxATklSyOUGI3lCqJfU6kQAy7SCcnBqZ+VwFxVoQFQ6q9rSqTEsViW6KKo+oxjYmgz9eVC2zQCnkbskJCRRgmVKaIEdaqvSXJMZwxMK9xpmAB0YITsKQETl2nMkUrzlDLeyicWdiXBdQhHl25K4HkHCKDua45j64ChLCs5JHGxoJQcKyrRhq6acq71ZXsFgUISy+BqgIUyZaASxCV9OBo++VA4KJrdsOFPoIzSw8uyUU61qENI4vG1CZfbffhVmDTqN+Vd6sbwVmnRLY0FLiaHghhLQHxuIhRYwm4KRCq8dcexLx5bGe5qHMgKiCqSxAzI9gwAWF/l0+zx82mAqjpvlcwx7jEAop/EoK+5XFN9UBd7ycCAVm1dyrmGIxvXNSZdyU9fLfA2C3nAI0pA9WptmQpi47VUlYVWBlR05YUtaYZ2GdeDLYTSAROiutK3TCD9QnXghxwc7Vl21vJVwBL9GCmQaN7huGkYWk1eSIOeO7DBgd/uMGhEu7tlajpumgMKdk7Kq47JsQgHJGVC95LQikY7q3iCI7zook/K261GC1IYfVnrTgCut1x8SaApzRcYm8477NKxaYC1Acerlu+VqDqNbmoUXnwNWuoHAXj0vupH8E6vVJ1iT3c8djNRw2iHRxIXFMLdKyu2beqTSJnwpNBLUL3i/4RWroz0VfURRvXD4u3E6Z8IKqcj7GsAyNViPOajinnht+hVv2LJLAtoaxARmZjOtJrhW9iK72P3rD3rr9+g6VNQGvLwefq2ZnOrHHVumwUxKFmTNkV1BRnZtb5K1Pc4KaITMGuaRDm1oV2MGO66TWpuVakpN6LqmPYIIo2OOabC7kZde6n8/jIjNpV7Ew7TDc3b05N8H4JSM//hlt39OYiIsiBghZytWJT5ElXsSCWNg+W/oAJ0IC0xQi9DtLueq/aJIw4wNj9oHpFHGr5Q/XAka8HZxoJaeY1YuZsqRP4HhoEesHZpdaV3lwjYYyldR5x8vBC09ZRa8w9NtfHj4hDl4C/WsRDKuoPj9mBywJC5v8zlyiuwZZvWOOmPEUazBo7SjdFDAL+lN5vZlwJCPh+v5J1WZcJdcKKLpqAJg6qWpST2jVGLnbTnp4eAty1NENLMmE80JIsjvazJa0bB8w8zvMe8g295NprJSCxvuLoeQ9lYu1ak4LKOpg9jTpz0m4mKt0wf+eps+JYu8Fjc8XTrY1HYf0I5kQ9FOcNK6vSkGfdy8IjkcgTxr6XRfxsyTrRv7AHCTxC+4FDwFeKO0w44mJaIbhyumGbc82SC+kQEYR6AcvbjQUk/6xBMfCHEhWqW6DCcd6kM5vtZgV383FNokLkK8VN20Ue0S9u2q7wWHXV2y0303alqi11bgOV4oaFGgKHNUAvpehEtFTchTXD9mga0bFFEanKdT+k6QqkB3/pZlUPtIKbq+wRicTsApllPaoespu4NfCDN6sc12+f0Ixxdi2U1FFxdqyyQhyYULJjBCJD9ezm4WO6uy3VFMtQAsqOQXhAxkstnP9/QXxoahbCISO2ykVTbt4b9M+fz/ucxfv7EwGSk7ZcY8CUbjBHhjxNZQRwc1CSMiW+9jgVA2R2/3W365zdMgNQf+2xMK+UumIAw39UIa5pefHmipV6qu5GbER4aALSTFxhmC+4+ivlBBpScfdnElYmKesr3aC9lFRx/eZYkyOi8t0KyROttIK72t/4Hv26ziqomzFAChrzKoPo6GZnDbjTKVnQVYGEeDJ2bQDVin0EE9BL6xP7OdET3gWDgAnI9FXj6seikDImTDlG16686aCuW62uAUTpMLp7fTPgKIiFXlHcGhCg9oxrxpebbz7R+ZrExZLrL7Gak6veCs4gPVDawf+p0RL0fnvn3qlraRimoqLEDZ2bH+AXUGj8WiU6ZXNluQ19Y8NbGbRSeIZXwUspeDUvuuBlBTi1P6JrjdWAzYnoZk0rT6Ssa2AuFhG9tQSmChDSNgGZWKwV81osT8IjmkVRPVf+Bp2nAuQIaw+y6X73/TBShNXOX0pU3HUh/lai6HrLa3yJNa3exj2fFbG9AO9BCWVuRn//t2HdC9gP71++9cvrp09v3911/Lt+WZd99PZFX/nHPwE=);lineShape=1;strokeColor=default;" vertex="1" parent="1">
          <mxGeometry x="335.33891579543615" y="23.86434327815323" width="1074.5907323839215" height="270.82443084979127" as="geometry" />
        </mxCell>
        <mxCell id="ogPlFJNiPf8kdN2vCbjD-283" value="" style="shape=stencil(lVpbchw3DDzN/rL4BvntOPdwleVIFUVyycrr9gGzxfGwMdNj/61WwJJ4NwDe0odvj5++Ptyi//b+9vr7w99Pn98fb+mXW4xPL48Pb0/v+umWPt7Shy+vbw+/vb3++fL5/vfXT4NyfPrj9a/xC//c+cTlPpii//f+RXIh/v/Fr3fy56eXHXlx0hZycb6ck2eX40Iegsv+nD46kZW+u1zP6YOLdb19cCmc03snZaHPKm5j9M0v9EUVkOh91vvX6oTK61f9SHaV6DO5CPTNdXL/7CQv9M07T/RZXVn1I+IacYc2rbnRR9fI/bsrDfUTib266+v9S3OV0qf1/iW4QORtzqfVH1T/wvQD8mbVJ9V/D6t/CrVXMvQqb2f0efX/rPJS/0kd5c1E3jS1vdELta9qb71P8fT31foQj80FEl/iwhpfubiWqX3BXskVSg/pTfXJ8o/6M9irzwx2nB88CqwGTiRBaL4McEJ1nWWg6MIqctKURVwopHmBHQOLmZBdiYaBOEUorjZkaOyE6mo0QpOwCeKSoFo7sbMywJVypIGmDBEiR32FZMYhw3qlIrSyKkNYT6jNRSZDdWlNjtJnuTqTAbJF61OqY4aOduiFlg+tZ3l1715p/VA8kVc79EwTvK04KoMnDAoIgimBlQRQyjOjb2r1M8qPGQQDqHoa01ozylp1tEpVxqBJC9KeJk7GUBEX6TeeWDo3lCFz4JU7IrWilYSoVQuBrL5U9ATi3qoT0FKNrhMZyoZcd+CikWRcKsa0BCfE0jVgTCs8YklgRPAqQ+MyKPwDwNPKhHzHBctjiLY09XbMkLECSaXJuFUMoJpnFT5jSOuVRlEn2Vuv1KA+RBpxLbi+eqsCbyEVSFGyN31FIAGkdoir0AqFGJBXz0lGhs6u5GeR3VUglu6VAbGbBi0xnF6prdBBY7ASO0g26EqrKLG0en8A+Kb1gcErj/1R5v1aMzE9ABY7oZhExoVWb222JWTxIOh8KnRnMlhQ2VxhJ/QDwzE7dFPjNBeytqTHiSF32Zv1PVr38YQyW/tjBpl23TEUEkBdoXRHBs+u1E1BKRRgKUNLyJBIqlSGbk5gvjQYVktriaGYz3tsUJSDNrj2CJkdwo8KIbPJ/1E1ac9HataBIRpNrgembrSBUIYsyMDyjDKkijIIt1w0amWDqsEAAcH7ssGQkIEBpsEAMhRaUYbQxr9ZszvUahhYCRqGK8hA80zHNmswcF+yA7fIhe6G4cK9uxi10pb9KEbzxREdGS4sh2Mu9T4e1M3690WMguUuI6gmZLiI0Z9kMG3TmO2xgCgI4q6GgdGJ0RLNZN6kvq2ROqvUOG/MdB7eTEOgbQ5rwRVt5NU1BnhgJ1TTKxYq9GgwYMaXZk9xhsmQIVLwoKgPmvycqWsorgQwfTF2HHC9o1qZ0IqNC7hGovm+9jln3DXILOKUARYrCnUjUavie8hkydNuVIWG5cFYVzChG+L77zOnY8NFnDCNdQxzvoJqHfsY5hoy50k792b5Xt1bYErG8702l9AgS+dX8nMQuHXUlSJXMe3riHJi6dpmDdw1+Z1tZYIZ3Pk5aD+bbPg1RPWShc1O4nS1Ta2djhFGR5LRDnRx6M10JtDVT7aQrNI0k82wX6Vig4oxJTMxTbeZyfSKjRZ27T27rQ9snyM4VquRWjpl3KiNDRyfh8JKR/M5nem2ufHcRrSBjpljQSSgpZ4uQSMC1x3mOhtMw6xcj7jYKIB/d08tFwpi4+Z5K1dwNVuFrnKDUdOIWj7vD7CsFBqjwW7XAh08DKGhZvm56zlmyDijTZ2WoJCwk0udo+9o8I+fHn/MYCr7EJoxeAw5hTN0x+9xQaB5gcL7ieV3iCzRJWQ1dmY1Ucyjhk4lNrEw8iSh37rIXRJj9S0jaiiZ3ieZUVGkY5aIS+axiiM+FNHnRh6n9AAx0sWKaWa3jZ4/Eilmplmo/it2JYlnlmaW9rwkDIeGKuX55tGb3WafDynOGHC3KRd7exBZykQDZy69XugCIGUMsbGX4S4BAGx76XMssFnNFmoCsxFU/TBwZC1W6HzLjDAuWjaPTeR4iUNcLuIyIwjFzAmHkhxHFVzv54uECIMCP7vuE3K4vKeDZ8G5HMcqgqNIT0PF7Og93UYI5mZPmxvB1MDDRDDOA02Egp0Tf+wnmDc5rjRPNiLdgSs5bPAo9hHj8bOrOzPTzzybvCTXD99faH55en6+P/Dc/x9fdOpX99eg6eN/);lineShape=1;strokeColor=default;" vertex="1" parent="1">
          <mxGeometry x="68.50055833532974" y="74.47625343768834" width="1078.2747494220619" height="270.178031174568" as="geometry" />
        </mxCell>
      </root>
    </mxGraphModel>
  </diagram>
</mxfile>
